<svg xmlns="http://www.w3.org/2000/svg" width="99.128" height="111.927" viewBox="0 0 99.128 111.927">
  <g id="Group_1675" data-name="Group 1675" transform="translate(-280.05 -200)">
    <path id="Path_2430" data-name="Path 2430" d="M375.765,293.684c-4.394-6.791-15.834-10.91-21.98-13.122s-7.86-3.431-9.191-5.18c-.64-.842-.927-5.315-.638-9.733a55.4,55.4,0,0,0,3.681-5.932,26.7,26.7,0,0,0,9.832-8.521l1.327.072c.07,0,.139.006.207.006,2.47,0,4.582-2.351,4.744-5.338l.4-7.442c.164-3.067-1.8-5.691-4.354-5.829l-.046,0v-3.4c0-15.861-13.8-29.261-30.134-29.261s-30.135,13.4-30.135,29.261v3.4l-.11.006c-2.559.138-4.515,2.762-4.355,5.829l.4,7.442c.159,2.987,2.272,5.338,4.741,5.338.07,0,.138,0,.208-.006l1.917-.15c1.022-.054,2.688-.935,2.634-1.959l-.8-14.883a1.867,1.867,0,0,0-1.142-1.616v-3.4c0-13.965,12.2-25.763,26.638-25.763s26.638,11.8,26.638,25.763v3.375a1.865,1.865,0,0,0-1.208,1.641l-.8,14.883a1.808,1.808,0,0,0,.044.473,23.018,23.018,0,0,1-4.985,4.962,50.421,50.421,0,0,0,.6-5.422,11.283,11.283,0,0,0,1.844-3.609c.76-2.429,1.539-6.886.89-9.187a9.379,9.379,0,0,0-.893-2.237c.005-1.026.022-3.267.091-5.123.033-.983.159-9.784-5.817-15.971-3.884-4.015-9.4-6.051-16.407-6.051s-12.526,2.038-16.407,6.055c-5.977,6.191-5.848,14.984-5.813,15.969.067,1.852.085,4.092.091,5.119a9.244,9.244,0,0,0-.893,2.236c-.654,2.3.126,6.76.889,9.2a11.352,11.352,0,0,0,1.841,3.6,35.627,35.627,0,0,0,1.431,8.7,43.662,43.662,0,0,0,4.519,7.778c.289,4.42,0,8.895-.637,9.737-1.333,1.751-3.048,2.97-9.194,5.177s-17.585,6.331-21.977,13.127c-4.218,6.521-3.826,14.886-2.524,16.683,1.06,1.441,3.452,1.556,6.466,1.556l7.316,0,25.048,0H339.9l24.871-.005,7.06.005c3.014,0,5.4-.116,6.465-1.568C379.589,308.571,379.983,300.2,375.765,293.684Zm-75.61-45.906c-.387,0-1.179-.716-1.249-2.029l-.4-7.436a2.091,2.091,0,0,1,.973-2.132.431.431,0,0,1,.076-.021l1.159-.062.6,11.22.02.368Zm60.5-9.47-.4,7.441a2.736,2.736,0,0,1-.506,1.5c-.019.025-.038.043-.056.066h-1.844l.6-11.22,1.157.061a.42.42,0,0,1,.143.04A2.2,2.2,0,0,1,360.654,238.308Zm14.794,69.881a16.628,16.628,0,0,1-3.621.241l-7.06-.005-24.871.005-10.287,0-9.846,0-25.047,0-7.316,0a16.69,16.69,0,0,1-3.628-.241,19,19,0,0,1,2.623-12.6c3.751-5.8,14.468-9.66,20.224-11.731,6.282-2.256,8.8-3.739,10.792-6.35,1.906-2.5,1.484-10.278,1.309-12.6l-.037-.494-.292-.4c-.032-.048-3.34-4.62-4.369-7.364a34.575,34.575,0,0,1-1.243-8.234l-.048-.706-.488-.485a7.074,7.074,0,0,1-1.435-2.7c-.769-2.451-1.194-6.01-.859-7.193a6.008,6.008,0,0,1,.528-1.385l.5-.413V234.7c0-.132,0-3.265-.093-5.8-.029-.83-.14-8.262,4.833-13.414,3.2-3.31,7.87-4.989,13.89-4.989s10.692,1.677,13.888,4.985c4.973,5.149,4.866,12.589,4.837,13.419-.091,2.54-.094,5.672-.094,5.8l0,.828.5.412a6.07,6.07,0,0,1,.529,1.387c.331,1.178-.094,4.741-.857,7.188A7.128,7.128,0,0,1,347,247.2l-.529.493-.027.721a34.37,34.37,0,0,1-1.239,8.234c-.056.152-.125.311-.2.475a37.9,37.9,0,0,1-10.71,2.84,4.368,4.368,0,1,0,.318,3.493,46.706,46.706,0,0,0,7.694-1.592c-.811,1.23-1.459,2.126-1.474,2.147l-.292.4-.037.5c-.175,2.321-.6,10.1,1.309,12.6,1.985,2.606,4.5,4.094,10.788,6.353,5.758,2.073,16.475,5.93,20.228,11.731A18.969,18.969,0,0,1,375.449,308.189Z" fill="#fff"/>
  </g>
</svg>
