<svg xmlns="http://www.w3.org/2000/svg" width="177.385" height="192.2" viewBox="0 0 177.385 192.2">
  <g id="Group_1700" data-name="Group 1700" transform="translate(-360.615 -993)">
    <g id="Group_1653" data-name="Group 1653" transform="translate(0 -150)">
      <g id="Group_217" data-name="Group 217" transform="translate(163.125 1027.546)">
        <g id="Group_216" data-name="Group 216" transform="translate(197.49 115.454)">
          <g id="Group_208" data-name="Group 208" transform="translate(0)">
            <g id="Group_173" data-name="Group 173" transform="translate(35.096 44.969)">
              <path id="Path_1429" data-name="Path 1429" d="M420.37,350.522c1.577-2.075,6.318-9.878,6.318-13.135,0-5.726-6.8-10.122-10.754-6.4-.77-8.494-4.3-14.914-8.541-14.914-4.1,0-7.54,6.008-8.456,14.09-.107-.006-.227.041-.321-.011-4.665-2.573-12.1,2.685-12.1,8.972,0,3.6,5.116,9.217,6.99,11.3-4.815-.075-5.646,3.246-5.29,7.754.469,5.938,6.392,11.9,10.912,11.9a6.1,6.1,0,0,0,2.483-.535,11.93,11.93,0,0,0-.071,1.305c0,4.708,3.1,5.6,6.484,5.6s5.773-.891,5.773-5.6c0-.081,0-.161,0-.241a5.994,5.994,0,0,0,1.467.186c4.52,0,8.083-5.629,9.37-11.783C425.7,353.914,423.445,349.525,420.37,350.522Z" transform="translate(-379.244 -316.076)" fill="#97cc26"/>
              <path id="Path_1430" data-name="Path 1430" d="M385.567,416.936c1.1-2.048,4.177-9.584,3.72-12.453-.8-5.043-7.409-7.959-10.367-4.123-1.87-7.372-5.879-12.53-9.614-11.935-3.613.576-5.8,6.349-5.469,13.594-.095.01-.194.068-.284.035-4.469-1.611-10.277,4.062-9.395,9.6.505,3.169,5.8,7.4,7.741,8.973-4.251.61-4.516,3.651-3.57,7.57,1.246,5.163,7.3,9.58,11.279,8.946a5.447,5.447,0,0,0,2.112-.82,10.61,10.61,0,0,0,.12,1.159c.661,4.146,3.515,4.495,6.5,4.02s4.958-1.594,4.3-5.74c-.011-.071-.025-.141-.038-.212a5.344,5.344,0,0,0,1.318-.042c3.98-.634,6.327-6.091,6.6-11.691C390.736,419.175,388.136,415.627,385.567,416.936Z" transform="translate(-354.069 -372.172)" fill="#79a333"/>
              <path id="Path_1431" data-name="Path 1431" d="M497.624,384.917c1.576-2.075,6.318-9.878,6.318-13.135,0-5.726-6.8-10.122-10.754-6.4-.77-8.494-4.3-14.915-8.541-14.915-4.1,0-7.539,6.008-8.456,14.09-.107-.006-.227.041-.321-.011-4.666-2.573-12.1,2.684-12.1,8.972,0,3.6,5.116,9.217,6.99,11.3-4.815-.075-5.646,3.247-5.29,7.754.469,5.938,6.392,11.9,10.913,11.9a6.1,6.1,0,0,0,2.483-.535,11.878,11.878,0,0,0-.072,1.305c0,4.708,3.1,5.6,6.484,5.6s5.773-.891,5.773-5.6c0-.081,0-.161,0-.241a5.985,5.985,0,0,0,1.468.186c4.52,0,8.082-5.629,9.37-11.783C502.953,388.309,500.7,383.92,497.624,384.917Z" transform="translate(-439.182 -342.762)" fill="#8db63c"/>
              <path id="Path_1432" data-name="Path 1432" d="M443.811,482c.661-1.7,2.385-7.895,1.837-10.177-.965-4.013-6.063-6.045-7.969-2.826-1.924-5.834-5.267-9.788-7.985-9.135-2.629.632-3.82,5.372-3.046,11.176-.07.012-.139.063-.208.041-3.423-1.085-7.3,3.745-6.242,8.15.606,2.521,4.831,5.671,6.383,6.844-3.1.689-3.071,3.145-2.084,6.248,1.3,4.089,6.1,7.353,9,6.656a3.733,3.733,0,0,0,1.5-.757,9.372,9.372,0,0,0,.174.926c.793,3.3,2.929,3.446,5.1,2.924s3.549-1.513,2.756-4.812c-.014-.057-.029-.112-.043-.168a3.642,3.642,0,0,0,.972-.1c2.9-.7,4.231-5.189,4.02-9.7C447.8,483.559,445.614,480.831,443.811,482Z" transform="translate(-405.237 -427.581)" fill="#97cc26"/>
            </g>
            <g id="Group_174" data-name="Group 174" transform="translate(58.207 4.419)">
              <path id="Path_1433" data-name="Path 1433" d="M523.477,169.616c1.576-2.075,6.318-9.878,6.318-13.135,0-5.727-6.8-10.122-10.754-6.4-.77-8.494-4.3-14.915-8.541-14.915-4.1,0-7.539,6.008-8.456,14.09-.106-.006-.227.041-.321-.011-4.665-2.573-12.1,2.684-12.1,8.972,0,3.6,5.116,9.217,6.99,11.3-4.815-.074-5.646,3.247-5.29,7.754.469,5.938,6.392,11.9,10.913,11.9a6.107,6.107,0,0,0,2.483-.535,11.924,11.924,0,0,0-.071,1.305c0,4.708,3.1,5.6,6.484,5.6s5.772-.891,5.772-5.6c0-.081,0-.161,0-.241a5.984,5.984,0,0,0,1.467.186c4.52,0,8.082-5.629,9.37-11.783C528.806,173.008,526.552,168.619,523.477,169.616Z" transform="translate(-482.351 -135.17)" fill="#97cc26"/>
              <path id="Path_1434" data-name="Path 1434" d="M488.673,236.03c1.1-2.048,4.177-9.585,3.72-12.453-.8-5.043-7.409-7.958-10.367-4.123-1.87-7.372-5.879-12.53-9.614-11.935-3.613.576-5.8,6.349-5.469,13.594-.095.01-.194.068-.284.035-4.469-1.611-10.277,4.062-9.395,9.6.505,3.168,5.8,7.4,7.741,8.972-4.25.61-4.516,3.651-3.57,7.57,1.246,5.163,7.3,9.58,11.279,8.946a5.445,5.445,0,0,0,2.112-.82,10.546,10.546,0,0,0,.12,1.159c.661,4.146,3.515,4.5,6.5,4.02s4.958-1.595,4.3-5.74c-.011-.071-.025-.141-.038-.212a5.343,5.343,0,0,0,1.318-.042c3.98-.634,6.327-6.091,6.6-11.691C493.842,238.269,491.242,234.721,488.673,236.03Z" transform="translate(-457.175 -191.266)" fill="#79a333"/>
              <path id="Path_1435" data-name="Path 1435" d="M600.731,204.012c1.577-2.075,6.318-9.878,6.318-13.135,0-5.726-6.8-10.121-10.754-6.4-.77-8.494-4.3-14.914-8.541-14.914-4.1,0-7.54,6.008-8.456,14.09-.107-.006-.227.041-.321-.011-4.665-2.573-12.1,2.684-12.1,8.972,0,3.6,5.116,9.217,6.99,11.3-4.815-.074-5.646,3.247-5.29,7.754.469,5.938,6.392,11.9,10.912,11.9a6.105,6.105,0,0,0,2.483-.535,11.932,11.932,0,0,0-.071,1.3c0,4.708,3.1,5.6,6.484,5.6s5.772-.891,5.772-5.6c0-.081,0-.161,0-.241a6,6,0,0,0,1.467.186c4.52,0,8.082-5.629,9.37-11.783C606.06,207.4,603.806,203.015,600.731,204.012Z" transform="translate(-542.289 -161.856)" fill="#8db63c"/>
              <path id="Path_1436" data-name="Path 1436" d="M546.917,301.1c.661-1.7,2.385-7.895,1.836-10.177-.965-4.013-6.063-6.045-7.969-2.826-1.924-5.834-5.268-9.789-7.985-9.135-2.629.632-3.82,5.371-3.046,11.176-.069.012-.138.063-.208.041-3.423-1.085-7.3,3.745-6.242,8.15.606,2.522,4.831,5.671,6.383,6.844-3.1.69-3.071,3.145-2.084,6.248,1.3,4.089,6.1,7.352,9,6.656a3.741,3.741,0,0,0,1.5-.757,9.34,9.34,0,0,0,.174.926c.793,3.3,2.929,3.446,5.1,2.924s3.549-1.513,2.756-4.812c-.014-.057-.029-.112-.043-.168a3.625,3.625,0,0,0,.972-.1c2.9-.7,4.232-5.189,4.021-9.7C550.9,302.654,548.72,299.926,546.917,301.1Z" transform="translate(-508.343 -246.675)" fill="#97cc26"/>
            </g>
            <g id="Group_175" data-name="Group 175" transform="translate(106.425 30.261)">
              <path id="Path_1437" data-name="Path 1437" d="M738.595,284.908c1.576-2.075,6.318-9.878,6.318-13.135,0-5.727-6.8-10.122-10.754-6.4-.77-8.494-4.3-14.915-8.541-14.915-4.1,0-7.539,6.008-8.456,14.09-.107-.006-.227.041-.321-.011-4.665-2.573-12.1,2.684-12.1,8.972,0,3.6,5.116,9.217,6.99,11.3-4.815-.074-5.646,3.247-5.29,7.754.469,5.938,6.392,11.9,10.912,11.9a6.1,6.1,0,0,0,2.483-.535,11.936,11.936,0,0,0-.071,1.305c0,4.708,3.1,5.6,6.484,5.6s5.772-.891,5.772-5.6c0-.081,0-.161,0-.241a5.982,5.982,0,0,0,1.467.186c4.52,0,8.083-5.629,9.37-11.783C743.924,288.3,741.67,283.911,738.595,284.908Z" transform="translate(-697.469 -250.462)" fill="#97cc26"/>
              <path id="Path_1438" data-name="Path 1438" d="M703.792,351.322c1.1-2.048,4.177-9.585,3.72-12.453-.8-5.043-7.409-7.959-10.367-4.123-1.87-7.372-5.879-12.53-9.614-11.935-3.613.576-5.8,6.349-5.469,13.594-.095.01-.194.068-.284.035-4.469-1.611-10.277,4.062-9.395,9.6.505,3.169,5.8,7.4,7.741,8.972-4.25.61-4.516,3.651-3.57,7.57,1.246,5.163,7.3,9.58,11.279,8.946a5.445,5.445,0,0,0,2.112-.82,10.527,10.527,0,0,0,.12,1.159c.661,4.146,3.515,4.495,6.5,4.02s4.958-1.595,4.3-5.74c-.011-.071-.025-.141-.038-.212a5.344,5.344,0,0,0,1.318-.042c3.98-.634,6.327-6.091,6.6-11.691C708.96,353.561,706.36,350.013,703.792,351.322Z" transform="translate(-672.293 -306.558)" fill="#79a333"/>
              <path id="Path_1439" data-name="Path 1439" d="M762.035,416.39c.661-1.7,2.385-7.894,1.836-10.177-.965-4.013-6.063-6.045-7.969-2.826-1.924-5.834-5.268-9.789-7.985-9.135-2.629.632-3.82,5.371-3.046,11.176-.069.013-.138.064-.208.042-3.423-1.085-7.3,3.745-6.242,8.15.606,2.521,4.831,5.671,6.383,6.844-3.1.689-3.071,3.145-2.084,6.248,1.3,4.089,6.1,7.353,9,6.656a3.739,3.739,0,0,0,1.5-.757,9.336,9.336,0,0,0,.174.926c.793,3.3,2.929,3.446,5.1,2.924s3.549-1.513,2.756-4.812c-.014-.057-.029-.112-.043-.168a3.635,3.635,0,0,0,.972-.1c2.9-.7,4.232-5.189,4.021-9.7C766.021,417.946,763.838,415.218,762.035,416.39Z" transform="translate(-723.461 -361.967)" fill="#97cc26"/>
              <path id="Path_1440" data-name="Path 1440" d="M815.849,319.3c1.577-2.075,6.318-9.877,6.318-13.135,0-5.727-6.8-10.122-10.754-6.4-.77-8.494-4.3-14.915-8.541-14.915-4.1,0-7.54,6.008-8.456,14.09-.107-.006-.227.041-.321-.011-4.665-2.573-12.1,2.684-12.1,8.972,0,3.6,5.116,9.217,6.99,11.3-4.815-.074-5.646,3.247-5.29,7.754.469,5.938,6.392,11.9,10.912,11.9a6.1,6.1,0,0,0,2.483-.535,11.921,11.921,0,0,0-.071,1.3c0,4.708,3.1,5.6,6.484,5.6s5.773-.891,5.773-5.6c0-.081,0-.161,0-.241a5.994,5.994,0,0,0,1.467.186c4.52,0,8.083-5.629,9.371-11.783C821.178,322.7,818.924,318.307,815.849,319.3ZM803.5,345.232c3.385,0,5.773-.891,5.773-5.6C809.277,339.553,800.12,345.232,803.5,345.232Z" transform="translate(-757.407 -277.148)" fill="#8db63c"/>
            </g>
            <g id="Group_176" data-name="Group 176" transform="translate(3.056 23.328)">
              <path id="Path_1441" data-name="Path 1441" d="M277.426,253.976c1.576-2.075,6.318-9.878,6.318-13.135,0-5.727-6.8-10.122-10.754-6.4-.77-8.494-4.3-14.915-8.541-14.915-4.1,0-7.539,6.008-8.456,14.09-.107-.006-.227.041-.321-.011-4.665-2.573-12.1,2.684-12.1,8.972,0,3.6,5.116,9.217,6.99,11.3-4.815-.074-5.646,3.247-5.29,7.754.469,5.938,6.392,11.9,10.913,11.9a6.1,6.1,0,0,0,2.483-.535,11.863,11.863,0,0,0-.072,1.305c0,4.708,3.1,5.6,6.484,5.6s5.772-.891,5.772-5.6c0-.081,0-.161,0-.241a5.982,5.982,0,0,0,1.467.186c4.52,0,8.082-5.629,9.37-11.783C282.755,257.368,280.5,252.979,277.426,253.976Z" transform="translate(-236.3 -219.53)" fill="#97cc26"/>
              <path id="Path_1442" data-name="Path 1442" d="M242.623,320.391c1.1-2.048,4.177-9.585,3.72-12.453-.8-5.043-7.409-7.958-10.367-4.123-1.87-7.372-5.879-12.53-9.614-11.935-3.613.576-5.8,6.349-5.469,13.594-.095.01-.194.068-.284.035-4.469-1.611-10.277,4.062-9.395,9.6.5,3.169,5.8,7.4,7.741,8.972-4.25.61-4.516,3.651-3.57,7.57,1.246,5.163,7.3,9.58,11.279,8.946a5.444,5.444,0,0,0,2.111-.82,10.6,10.6,0,0,0,.12,1.159c.661,4.146,3.515,4.495,6.5,4.02s4.958-1.595,4.3-5.74c-.011-.071-.025-.141-.038-.212a5.342,5.342,0,0,0,1.318-.042c3.98-.634,6.327-6.091,6.6-11.691C247.792,322.63,245.192,319.082,242.623,320.391Z" transform="translate(-211.125 -275.627)" fill="#79a333"/>
              <path id="Path_1443" data-name="Path 1443" d="M354.681,288.372c1.577-2.075,6.318-9.877,6.318-13.135,0-5.726-6.8-10.121-10.754-6.4-.77-8.494-4.3-14.915-8.541-14.915-4.1,0-7.54,6.008-8.456,14.09-.107-.006-.227.041-.321-.011-4.665-2.573-12.1,2.684-12.1,8.972,0,3.6,5.116,9.217,6.99,11.3-4.815-.074-5.646,3.247-5.29,7.754.469,5.938,6.392,11.9,10.912,11.9a6.105,6.105,0,0,0,2.483-.535,11.936,11.936,0,0,0-.071,1.3c0,4.708,3.1,5.6,6.484,5.6s5.773-.891,5.773-5.6c0-.081,0-.161,0-.241a5.994,5.994,0,0,0,1.467.186c4.52,0,8.082-5.629,9.37-11.783C360.01,291.764,357.756,287.375,354.681,288.372Z" transform="translate(-296.239 -246.216)" fill="#8db63c"/>
              <path id="Path_1444" data-name="Path 1444" d="M300.867,385.458c.661-1.7,2.385-7.894,1.836-10.177-.965-4.013-6.063-6.045-7.969-2.826-1.924-5.834-5.268-9.789-7.985-9.135-2.629.632-3.82,5.371-3.046,11.176-.069.013-.138.064-.208.042-3.423-1.085-7.3,3.745-6.242,8.15.606,2.522,4.831,5.671,6.383,6.844-3.1.689-3.071,3.145-2.084,6.248,1.3,4.089,6.1,7.352,9,6.656a3.734,3.734,0,0,0,1.5-.758,9.32,9.32,0,0,0,.174.926c.793,3.3,2.929,3.446,5.1,2.924s3.549-1.513,2.756-4.812c-.014-.057-.029-.112-.043-.168a3.633,3.633,0,0,0,.972-.1c2.9-.7,4.232-5.189,4.021-9.7C304.853,387.014,302.67,384.286,300.867,385.458Z" transform="translate(-262.293 -331.036)" fill="#97cc26"/>
            </g>
            <g id="Group_183" data-name="Group 183" transform="translate(25.058)">
              <g id="Group_179" data-name="Group 179" transform="translate(0.509)">
                <path id="Path_1445" data-name="Path 1445" d="M353.288,261.091a.511.511,0,0,1-.644.327l-6.506-2.125a.511.511,0,0,1-.327-.644h0a.511.511,0,0,1,.644-.327l6.505,2.125a.511.511,0,0,1,.327.644Z" transform="translate(-338.113 -226.279)" fill="#f9bf73"/>
                <path id="Path_1446" data-name="Path 1446" d="M439.918,284.59a.511.511,0,0,1-.644.327l-6.506-2.124a.511.511,0,0,1-.327-.644h0a.511.511,0,0,1,.644-.327l6.505,2.124a.511.511,0,0,1,.327.644Z" transform="translate(-405.325 -244.511)" fill="#feb549"/>
                <g id="Group_178" data-name="Group 178" transform="translate(3.086)">
                  <path id="Path_1447" data-name="Path 1447" d="M406.486,117.088a1.937,1.937,0,0,0-2.376,1.362l-3.995,14.72,2.189-10.3a1.937,1.937,0,1,0-3.789-.805l-1.487,7,1.2-11.473a1.937,1.937,0,0,0-3.853-.4l-2.959,28.395a1.919,1.919,0,0,0,1.655,2.116l-.487,2.291a1.937,1.937,0,0,0,1.291,2.243,1.966,1.966,0,0,0,.2.054,1.937,1.937,0,0,0,2.3-1.492l.647-3.046a1.94,1.94,0,0,0,.4.365l9.9-30.551A1.937,1.937,0,0,0,406.486,117.088Z" transform="translate(-376.589 -115.454)" fill="#84b236"/>
                  <path id="Path_1448" data-name="Path 1448" d="M436.757,128.59a1.937,1.937,0,0,0-2.553.992L427.327,145.2l5.583-14.036a1.937,1.937,0,0,0-3.6-1.432l-4.5,11.325,3.878-14.289a1.933,1.933,0,0,0-.524-1.9l-9.9,30.551a1.913,1.913,0,0,0,.479.234l.1.028c.049.013.1.022.146.032l-.217.545a1.937,1.937,0,0,0,1.084,2.515c.039.015.077.029.116.042a1.937,1.937,0,0,0,2.4-1.126l.258-.648a1.936,1.936,0,0,0,3.628.228l11.506-26.127A1.937,1.937,0,0,0,436.757,128.59Z" transform="translate(-397.424 -122.758)" fill="#84b236"/>
                  <g id="Group_177" data-name="Group 177" transform="translate(0 44.804)">
                    <path id="Path_1449" data-name="Path 1449" d="M335.667,318.137a.511.511,0,0,1-.644.327l-6.505-2.125a.511.511,0,0,1-.327-.644h0a.511.511,0,0,1,.644-.327l6.506,2.125a.511.511,0,0,1,.327.644Z" transform="translate(-327.527 -315.343)" fill="#f9bf73"/>
                    <path id="Path_1450" data-name="Path 1450" d="M332.82,391.644a.51.51,0,0,1-.644.327l-6.506-2.125a.51.51,0,0,1-.327-.644h0a.511.511,0,0,1,.644-.327L332.494,391a.511.511,0,0,1,.327.644Z" transform="translate(-325.319 -372.374)" fill="#f9bf73"/>
                    <path id="Path_1451" data-name="Path 1451" d="M427.821,353.027a.511.511,0,0,1-.644.327l-6.506-2.124a.511.511,0,0,1-.327-.644h0a.511.511,0,0,1,.644-.327l6.506,2.125a.511.511,0,0,1,.327.644Z" transform="translate(-399.026 -342.413)" fill="#feb549"/>
                    <path id="Path_1452" data-name="Path 1452" d="M398.254,400.037a.5.5,0,0,1-.613.337l-6.083-1.987a.5.5,0,0,1-.3-.634h0a.5.5,0,0,1,.613-.337l6.083,1.987a.5.5,0,0,1,.3.634Z" transform="translate(-376.461 -379.003)" fill="#feb549"/>
                  </g>
                </g>
                <path id="Path_1453" data-name="Path 1453" d="M371.415,454.479c-.088.268-.312.435-.5.373l-4.6-1.5c-.19-.062-.273-.33-.185-.6h0c.088-.268.313-.435.5-.373l4.6,1.5c.19.062.273.33.185.6Z" transform="translate(-353.864 -376.847)" fill="#feb549"/>
                <path id="Path_1454" data-name="Path 1454" d="M351.97,511.87c-.088.268-.237.46-.335.428l-2.36-.771c-.1-.032-.1-.275-.017-.543h0c.088-.268.237-.46.335-.428l2.36.771c.1.032.1.275.017.543Z" transform="translate(-340.76 -421.993)" fill="#feb549"/>
                <path id="Path_1455" data-name="Path 1455" d="M333.975,426.918a.462.462,0,0,1-.526.366l-4.924-1.608a.462.462,0,0,1-.209-.606h0a.462.462,0,0,1,.526-.365l4.924,1.608a.462.462,0,0,1,.209.605Z" transform="translate(-324.533 -355.376)" fill="#f9bf73"/>
                <path id="Path_1456" data-name="Path 1456" d="M319.521,477.571c-.088.268-.255.454-.374.415l-2.885-.942c-.119-.039-.144-.288-.057-.556h0c.088-.268.255-.454.374-.415l2.884.942c.119.039.144.288.057.556Z" transform="translate(-315.122 -395.238)" fill="#f9bf73"/>
                <path id="Path_1457" data-name="Path 1457" d="M314.919,521.131c-.087.268-.255.454-.374.415l-2.884-.942c-.119-.039-.144-.288-.057-.556h0c.088-.268.255-.454.374-.415l2.884.942c.119.039.144.288.057.556Z" transform="translate(-311.552 -429.034)" fill="#f9bf73"/>
              </g>
              <path id="Path_1458" data-name="Path 1458" d="M362.114,264.078a.511.511,0,0,1-.644.327l-6.506-2.125a.511.511,0,0,1-.327-.644h0a.511.511,0,0,1,.644-.327l6.506,2.125a.511.511,0,0,1,.327.644Z" transform="translate(-344.452 -228.597)" fill="#f9bf73"/>
              <path id="Path_1459" data-name="Path 1459" d="M448.744,287.577a.51.51,0,0,1-.644.327l-6.506-2.125a.51.51,0,0,1-.327-.644h0a.51.51,0,0,1,.644-.327l6.506,2.124a.511.511,0,0,1,.327.644Z" transform="translate(-411.664 -246.828)" fill="#feb549"/>
              <g id="Group_180" data-name="Group 180" transform="translate(5.573 45.474)">
                <path id="Path_1460" data-name="Path 1460" d="M344.493,321.124a.511.511,0,0,1-.644.327l-6.505-2.125a.511.511,0,0,1-.327-.644h0a.511.511,0,0,1,.644-.327l6.505,2.125a.511.511,0,0,1,.327.644Z" transform="translate(-336.353 -318.33)" fill="#f9bf73"/>
                <path id="Path_1461" data-name="Path 1461" d="M341.647,394.631a.511.511,0,0,1-.644.327l-6.505-2.125a.51.51,0,0,1-.327-.644h0a.511.511,0,0,1,.644-.327l6.506,2.125a.511.511,0,0,1,.327.644Z" transform="translate(-334.145 -375.361)" fill="#f9bf73"/>
                <path id="Path_1462" data-name="Path 1462" d="M407.081,403.023a.5.5,0,0,1-.613.337l-6.083-1.987a.5.5,0,0,1-.3-.634h0a.5.5,0,0,1,.613-.337l6.083,1.987a.5.5,0,0,1,.3.634Z" transform="translate(-385.288 -381.989)" fill="#feb549"/>
              </g>
              <path id="Path_1463" data-name="Path 1463" d="M342.8,429.905a.462.462,0,0,1-.526.366l-4.924-1.608a.462.462,0,0,1-.209-.606h0a.462.462,0,0,1,.526-.365l4.924,1.608a.462.462,0,0,1,.209.605Z" transform="translate(-330.872 -357.694)" fill="#f9bf73"/>
              <path id="Path_1464" data-name="Path 1464" d="M328.347,480.558c-.087.268-.255.454-.374.415l-2.885-.942c-.119-.039-.144-.288-.057-.556h0c.088-.268.255-.454.374-.415l2.884.942c.119.039.144.288.056.556Z" transform="translate(-321.461 -397.556)" fill="#f9bf73"/>
              <path id="Path_1465" data-name="Path 1465" d="M323.745,524.118c-.088.268-.255.454-.374.415l-2.885-.942c-.119-.039-.144-.288-.057-.556h0c.088-.268.255-.454.374-.415l2.884.942c.119.039.144.288.057.556Z" transform="translate(-317.891 -431.352)" fill="#f9bf73"/>
              <path id="Path_1466" data-name="Path 1466" d="M380.649,270.351a.511.511,0,0,1-.644.327l-6.506-2.124a.511.511,0,0,1-.327-.644h0a.51.51,0,0,1,.644-.327l6.506,2.125a.51.51,0,0,1,.327.644Z" transform="translate(-358.832 -233.463)" fill="#f9bf73"/>
              <g id="Group_182" data-name="Group 182" transform="translate(0 25.1)">
                <g id="Group_181" data-name="Group 181">
                  <path id="Path_1467" data-name="Path 1467" d="M342.961,243.348c-2,5.148-3.171,11.214-2.377,14.375,0,.078-.008.158-.012.237a.41.41,0,0,0-.043.068,21.431,21.431,0,0,0-1.876,7.207,12.3,12.3,0,0,0,.422,5.784c-.029.47-.062.94-.1,1.41-.1,1.22-.2,2.44-.245,3.663-.047,1.174.065,2.345.03,3.516-.057,1.974-.99,3.744-.157,5.688h0c-.5,3.906-1.081,7.833-1.415,11.451a86.944,86.944,0,0,0-.5,11.32c1.92-2.372,3.885-5.222,5.248-6.9a22.843,22.843,0,0,0,2.342-3.733c1.8-3.011,3.654-5.923,5.467-8.848,1.759-2.839,3.408-5.731,5.086-8.659,1.087-1.9,2.106-2.465,2.844-3.584a57.5,57.5,0,0,0,5.117-9.934c3.365-4.381,5.476-7.883,6.9-13.221,1.687-6.843-3.739-12.921-9.7-16C353.422,235.914,345.644,236.815,342.961,243.348Z" transform="translate(-330.511 -234.62)" fill="#ff9d14"/>
                  <path id="Path_1468" data-name="Path 1468" d="M313.22,276.706h0c-.833-1.944.1-3.714.157-5.688.034-1.171-.077-2.342-.03-3.516.049-1.223.144-2.443.245-3.663.039-.47.071-.94.1-1.41a12.3,12.3,0,0,1-.422-5.784,21.431,21.431,0,0,1,1.876-7.207.418.418,0,0,1,.043-.068c0-.079.009-.159.012-.237-.794-3.161.373-9.227,2.377-14.375,3-7.3,12.357-7.566,19.284-5.623q-.541-.218-1.078-.4h0l-.028-.009-.027-.009h0c-6.988-2.2-17.008-2.229-20.129,5.372-2,5.148-3.171,11.214-2.377,14.375,0,.078-.008.158-.012.237a.391.391,0,0,0-.043.068,21.431,21.431,0,0,0-1.876,7.207,12.3,12.3,0,0,0,.422,5.784c-.029.47-.062.939-.1,1.41-.1,1.22-.2,2.44-.245,3.663-.047,1.174.065,2.345.031,3.516-.057,1.974-.991,3.744-.157,5.688h0c-.5,3.906-1.081,7.833-1.415,11.451-.211,2.173-1.567,15.019,1.013,17.44a2.9,2.9,0,0,0,1.232-.563c-1.534-4.028-.453-14.287-.266-16.208C312.139,284.54,312.716,280.613,313.22,276.706Z" transform="translate(-309.282 -227.436)" fill="#ed870c"/>
                  <path id="Path_1469" data-name="Path 1469" d="M322.808,291.882c.334-3.618.911-7.545,1.415-11.451h0c-.833-1.944.1-3.714.157-5.688.034-1.171-.077-2.342-.031-3.516.049-1.223.144-2.443.245-3.663.039-.47.071-.94.1-1.41a12.3,12.3,0,0,1-.422-5.784,21.431,21.431,0,0,1,1.876-7.207.411.411,0,0,1,.043-.068c0-.079.009-.16.012-.237-.794-3.161.373-9.227,2.377-14.375,2.683-6.533,10.46-7.433,17.03-6.158-.63-.325-1.266-.616-1.9-.872-6.927-1.943-16.287-1.677-19.284,5.623-2,5.148-3.171,11.214-2.377,14.375,0,.078-.008.158-.012.237a.417.417,0,0,0-.043.068,21.43,21.43,0,0,0-1.876,7.207,12.3,12.3,0,0,0,.422,5.784c-.029.47-.062.939-.1,1.41-.1,1.22-.2,2.44-.245,3.663-.047,1.174.065,2.345.03,3.516-.057,1.974-.991,3.744-.157,5.688h0c-.5,3.906-1.081,7.833-1.415,11.451-.187,1.921-1.267,12.18.266,16.208a19.409,19.409,0,0,0,3.386-3.482A86.938,86.938,0,0,1,322.808,291.882Z" transform="translate(-316.131 -229.754)" fill="#ff9d14"/>
                  <path id="Path_1470" data-name="Path 1470" d="M322.808,291.882c.334-3.618.911-7.545,1.415-11.451h0c-.833-1.944.1-3.714.157-5.688.034-1.171-.077-2.342-.031-3.516.049-1.223.144-2.443.245-3.663.039-.47.071-.94.1-1.41a12.3,12.3,0,0,1-.422-5.784,21.431,21.431,0,0,1,1.876-7.207.411.411,0,0,1,.043-.068c0-.079.009-.16.012-.237-.794-3.161.373-9.227,2.377-14.375,2.683-6.533,10.46-7.433,17.03-6.158-.63-.325-1.266-.616-1.9-.872-6.927-1.943-16.287-1.677-19.284,5.623-2,5.148-3.171,11.214-2.377,14.375,0,.078-.008.158-.012.237a.417.417,0,0,0-.043.068,21.43,21.43,0,0,0-1.876,7.207,12.3,12.3,0,0,0,.422,5.784c-.029.47-.062.939-.1,1.41-.1,1.22-.2,2.44-.245,3.663-.047,1.174.065,2.345.03,3.516-.057,1.974-.991,3.744-.157,5.688h0c-.5,3.906-1.081,7.833-1.415,11.451-.187,1.921-1.267,12.18.266,16.208a19.409,19.409,0,0,0,3.386-3.482A86.938,86.938,0,0,1,322.808,291.882Z" transform="translate(-316.131 -229.754)" fill="#fff" opacity="0.2"/>
                </g>
                <path id="Path_1471" data-name="Path 1471" d="M363.028,327.4a.511.511,0,0,1-.644.327l-6.505-2.125a.511.511,0,0,1-.327-.644h0a.511.511,0,0,1,.644-.327l6.505,2.124a.511.511,0,0,1,.327.644Z" transform="translate(-345.161 -302.823)" fill="#f9bf73"/>
                <path id="Path_1472" data-name="Path 1472" d="M400.712,375.585a.511.511,0,0,1-.644.327l-6.505-2.125a.511.511,0,0,1-.327-.644h0a.511.511,0,0,1,.644-.327l6.506,2.125a.51.51,0,0,1,.327.644Z" transform="translate(-374.398 -340.21)" fill="#f9bf73"/>
                <path id="Path_1473" data-name="Path 1473" d="M431.479,305.989a.511.511,0,0,1-.644.327l-6.505-2.125a.511.511,0,0,1-.327-.644h0a.511.511,0,0,1,.644-.327l6.505,2.125a.511.511,0,0,1,.327.644Z" transform="translate(-398.269 -286.214)" fill="#f9bf73"/>
                <path id="Path_1474" data-name="Path 1474" d="M376.034,338.05a.511.511,0,0,1-.644.327l-6.506-2.125a.511.511,0,0,1-.327-.644h0a.511.511,0,0,1,.644-.327l6.506,2.125a.511.511,0,0,1,.327.644Z" transform="translate(-355.252 -311.088)" fill="#f9bf73"/>
                <path id="Path_1475" data-name="Path 1475" d="M352.1,266.338a.511.511,0,0,1-.644.327l-6.505-2.125a.511.511,0,0,1-.327-.644h0a.511.511,0,0,1,.644-.327l6.506,2.125a.511.511,0,0,1,.327.644Z" transform="translate(-336.683 -255.45)" fill="#f9bf73"/>
                <path id="Path_1476" data-name="Path 1476" d="M347.843,402.943a.511.511,0,0,1-.644.327l-6.506-2.125a.511.511,0,0,1-.327-.644h0a.51.51,0,0,1,.644-.327l6.506,2.125a.511.511,0,0,1,.327.644Z" transform="translate(-333.38 -361.436)" fill="#f9bf73"/>
                <path id="Path_1477" data-name="Path 1477" d="M443.969,304.292a.511.511,0,0,1-.644.327l-6.505-2.125a.511.511,0,0,1-.327-.644h0a.511.511,0,0,1,.644-.327l6.506,2.125a.511.511,0,0,1,.327.644Z" transform="translate(-407.959 -284.897)" fill="#f9bf73"/>
                <path id="Path_1478" data-name="Path 1478" d="M365.478,263.958a.51.51,0,0,1-.644.327l-6.505-2.124a.511.511,0,0,1-.327-.644h0a.511.511,0,0,1,.644-.327l6.506,2.124a.511.511,0,0,1,.327.644Z" transform="translate(-347.062 -253.604)" fill="#f9bf73"/>
                <path id="Path_1479" data-name="Path 1479" d="M411.636,372.7a.511.511,0,0,1-.644.327l-6.506-2.125a.511.511,0,0,1-.327-.644h0a.51.51,0,0,1,.644-.327l6.506,2.125a.511.511,0,0,1,.327.644Z" transform="translate(-382.874 -337.973)" fill="#f9bf73"/>
                <path id="Path_1480" data-name="Path 1480" d="M360.182,400.9a.511.511,0,0,1-.644.327l-6.505-2.125a.511.511,0,0,1-.327-.644h0a.511.511,0,0,1,.644-.327l6.506,2.125a.511.511,0,0,1,.327.644Z" transform="translate(-342.952 -359.854)" fill="#f9bf73"/>
              </g>
              <path id="Path_1481" data-name="Path 1481" d="M363.451,448.77a.462.462,0,0,1-.526.366L358,447.528a.462.462,0,0,1-.209-.606h0a.462.462,0,0,1,.526-.365l4.924,1.608a.462.462,0,0,1,.209.605Z" transform="translate(-346.893 -372.33)" fill="#f9bf73"/>
              <path id="Path_1482" data-name="Path 1482" d="M318.525,480.513c-.087.268-.255.454-.374.415l-2.884-.942c-.119-.039-.144-.288-.057-.556h0c.087-.268.255-.454.374-.415l2.885.942c.119.039.144.288.056.556Z" transform="translate(-313.841 -397.521)" fill="#f9bf73"/>
              <path id="Path_1483" data-name="Path 1483" d="M358.132,453.585c-.088.268-.255.454-.374.415l-2.884-.942c-.119-.039-.144-.288-.057-.556h0c.088-.268.255-.454.374-.415l2.884.942c.119.039.144.288.057.556Z" transform="translate(-344.571 -376.628)" fill="#f9bf73"/>
              <path id="Path_1484" data-name="Path 1484" d="M321.44,487.4c-.088.268-.255.454-.374.415l-2.884-.942c-.119-.039-.144-.288-.057-.556h0c.087-.268.255-.454.374-.415l2.885.942c.119.039.144.288.057.556Z" transform="translate(-316.103 -402.865)" fill="#f9bf73"/>
              <path id="Path_1485" data-name="Path 1485" d="M329.262,516.608c-.088.268-.255.454-.374.415L326,516.081c-.119-.039-.144-.288-.057-.556h0c.088-.268.255-.454.374-.415l2.884.942c.119.039.144.288.057.556Z" transform="translate(-322.172 -425.525)" fill="#f9bf73"/>
              <path id="Path_1486" data-name="Path 1486" d="M337.138,512.716c-.087.268-.255.454-.374.415l-2.885-.942c-.119-.039-.144-.288-.057-.556h0c.088-.268.255-.454.374-.415l2.885.942c.119.039.144.288.056.556Z" transform="translate(-328.282 -422.505)" fill="#f9bf73"/>
            </g>
            <g id="Group_184" data-name="Group 184" transform="translate(78.9 45.014)">
              <path id="Path_1487" data-name="Path 1487" d="M610.532,321.081a1.285,1.285,0,0,0-1.716-.516l-.026.013c-.057.016-.115.029-.174.04a2.318,2.318,0,0,1-.233-.009c-.018,0-.046,0-.075-.009-.056-.013-.112-.026-.167-.041a4.934,4.934,0,0,1-.491-.163c-.083-.031-.166-.066-.248-.1l-.023-.01-.013-.006c-.169-.077-.335-.159-.5-.24-.4-.2-.809-.387-1.221-.568a4.094,4.094,0,0,0-3.936.123l-.027-.037c-.144-.19-.3-.379-.459-.568-5.8-6.714-13.05-.438-28.795,13.136-15.611,13.458-25.534,27.588-22.329,31.739.028.035.056.07.085.1,3.46,4.014,19.029-3.736,34.774-17.309,13.543-11.675,20.095-18.787,17.985-24.806a.287.287,0,0,1,.051-.072c.022-.021.09-.073.13-.105s.089-.051.134-.075c.016-.008.041-.019.067-.03.056-.015.113-.028.17-.04l.023-.005c.073,0,.145,0,.218,0,.028,0,.057,0,.085.007s.133.024.173.034a4.779,4.779,0,0,1,.5.157c.068.024.4.166.389.157.137.063.272.128.408.194,1.5.728,3.078,1.506,4.727.717A1.274,1.274,0,0,0,610.532,321.081Z" transform="translate(-549.495 -316.28)" fill="#468439"/>
              <path id="Path_1488" data-name="Path 1488" d="M737.593,321.083a1.285,1.285,0,0,0-1.716-.516l-.026.013c-.057.016-.115.029-.174.04a2.325,2.325,0,0,1-.233-.009c-.018,0-.046,0-.075-.009-.056-.013-.112-.026-.167-.041a4.925,4.925,0,0,1-.491-.163c-.083-.031-.166-.066-.248-.1l-.023-.01-.013-.006c-.169-.077-.335-.159-.5-.24-.4-.2-.809-.387-1.221-.568a4.094,4.094,0,0,0-3.936.123l-.027-.037c-.144-.19-.3-.379-.459-.568-3.758-4.35-8.125-3.245-15.017,1.763,2.65-.659,10.445-1.82,8.308-.26.211-.024-4.5,4.382-5.083,4.875-1.335,1.887,7.92-4.342,9.325-5.142,1.666-1.008-1.016,5.883-2.3,7.738-1.245,1.5,4.4-2.421,4.864-3.969,2.213-.891-5.826,9.392-4.178,8.378a14.288,14.288,0,0,1,2.388-1.552c.959-.963-1.375,2.887-2.189,4.248,4.906-5.365,6.905-9.5,5.6-13.213a.288.288,0,0,1,.051-.072c.022-.021.09-.073.131-.105s.089-.051.134-.075c.016-.009.041-.02.067-.03.056-.015.113-.028.17-.04l.023-.005c.073,0,.145,0,.218,0,.029,0,.057,0,.085.007s.133.024.173.034a4.8,4.8,0,0,1,.5.157c.068.024.4.166.389.157.137.063.272.128.408.194,1.5.728,3.078,1.506,4.727.717A1.274,1.274,0,0,0,737.593,321.083Z" transform="translate(-676.556 -316.282)" fill="#629955"/>
              <path id="Path_1489" data-name="Path 1489" d="M701.784,368.748a.654.654,0,1,1,.068-.923A.654.654,0,0,1,701.784,368.748Z" transform="translate(-666.81 -356.095)" fill="#28681c"/>
              <path id="Path_1490" data-name="Path 1490" d="M656.849,426.868a.654.654,0,1,1,.068-.923A.655.655,0,0,1,656.849,426.868Z" transform="translate(-631.947 -401.188)" fill="#28681c"/>
              <path id="Path_1491" data-name="Path 1491" d="M660.051,400.87a.654.654,0,1,1,.068-.923A.654.654,0,0,1,660.051,400.87Z" transform="translate(-634.432 -381.017)" fill="#28681c"/>
              <path id="Path_1492" data-name="Path 1492" d="M701.51,429a.654.654,0,1,1,.068-.923A.654.654,0,0,1,701.51,429Z" transform="translate(-666.598 -402.842)" fill="#105e02"/>
              <path id="Path_1493" data-name="Path 1493" d="M685.112,450.845a.654.654,0,1,1,.068-.923A.654.654,0,0,1,685.112,450.845Z" transform="translate(-653.875 -419.79)" fill="#105e02"/>
              <path id="Path_1494" data-name="Path 1494" d="M644.581,460.115a.654.654,0,1,1,.068-.923A.654.654,0,0,1,644.581,460.115Z" transform="translate(-622.429 -426.983)" fill="#105e02"/>
              <path id="Path_1495" data-name="Path 1495" d="M633.927,483.406a.654.654,0,1,1,.068-.923A.654.654,0,0,1,633.927,483.406Z" transform="translate(-614.163 -445.054)" fill="#105e02"/>
              <path id="Path_1496" data-name="Path 1496" d="M655.473,487.358a.654.654,0,1,1,.068-.923A.654.654,0,0,1,655.473,487.358Z" transform="translate(-630.88 -448.119)" fill="#105e02"/>
              <path id="Path_1497" data-name="Path 1497" d="M683.5,466.722a.654.654,0,1,1,.068-.923A.654.654,0,0,1,683.5,466.722Z" transform="translate(-652.622 -432.109)" fill="#105e02"/>
              <path id="Path_1498" data-name="Path 1498" d="M731.967,424.557a.654.654,0,1,1,.068-.923A.655.655,0,0,1,731.967,424.557Z" transform="translate(-690.227 -399.395)" fill="#105e02"/>
              <path id="Path_1499" data-name="Path 1499" d="M700.022,408.467a.654.654,0,1,1,.068-.923A.655.655,0,0,1,700.022,408.467Z" transform="translate(-665.443 -386.911)" fill="#105e02"/>
              <path id="Path_1500" data-name="Path 1500" d="M740,399.67a.654.654,0,1,1,.068-.923A.654.654,0,0,1,740,399.67Z" transform="translate(-696.463 -380.086)" fill="#105e02"/>
              <path id="Path_1501" data-name="Path 1501" d="M737.074,384.234a.654.654,0,1,1,.068-.923A.654.654,0,0,1,737.074,384.234Z" transform="translate(-694.19 -368.11)" fill="#105e02"/>
              <path id="Path_1502" data-name="Path 1502" d="M584.911,515.408a.654.654,0,1,1,.068-.923A.654.654,0,0,1,584.911,515.408Z" transform="translate(-576.134 -469.882)" fill="#105e02"/>
              <path id="Path_1503" data-name="Path 1503" d="M592.688,522.811a.654.654,0,1,1,.068-.923A.654.654,0,0,1,592.688,522.811Z" transform="translate(-582.168 -475.626)" fill="#105e02"/>
              <path id="Path_1504" data-name="Path 1504" d="M614.064,486.421a.654.654,0,1,1,.068-.923A.654.654,0,0,1,614.064,486.421Z" transform="translate(-598.752 -447.393)" fill="#105e02"/>
              <path id="Path_1505" data-name="Path 1505" d="M609.389,508.414a.654.654,0,1,1,.068-.923A.655.655,0,0,1,609.389,508.414Z" transform="translate(-595.125 -464.456)" fill="#105e02"/>
              <path id="Path_1506" data-name="Path 1506" d="M693.565,350.272a.654.654,0,1,1,.068-.923A.654.654,0,0,1,693.565,350.272Z" transform="translate(-660.433 -341.76)" fill="#28681c"/>
              <path id="Path_1507" data-name="Path 1507" d="M732.381,361.755a.655.655,0,1,1,.068-.923A.655.655,0,0,1,732.381,361.755Z" transform="translate(-690.549 -350.67)" fill="#28681c"/>
              <path id="Path_1508" data-name="Path 1508" d="M604.184,435.492a.654.654,0,1,1,.068-.923A.654.654,0,0,1,604.184,435.492Z" transform="translate(-591.087 -407.879)" fill="#28681c"/>
              <path id="Path_1509" data-name="Path 1509" d="M592.711,444.656a.654.654,0,1,1,.068-.923A.654.654,0,0,1,592.711,444.656Z" transform="translate(-582.185 -414.989)" fill="#28681c"/>
              <path id="Path_1510" data-name="Path 1510" d="M606.458,447.071a.654.654,0,1,1,.068-.923A.654.654,0,0,1,606.458,447.071Z" transform="translate(-592.851 -416.862)" fill="#28681c"/>
              <path id="Path_1511" data-name="Path 1511" d="M631.158,449.015a.654.654,0,1,1,.068-.923A.654.654,0,0,1,631.158,449.015Z" transform="translate(-612.015 -418.371)" fill="#28681c"/>
              <path id="Path_1512" data-name="Path 1512" d="M580.176,489.111a.654.654,0,1,1,.068-.923A.654.654,0,0,1,580.176,489.111Z" transform="translate(-572.46 -449.479)" fill="#28681c"/>
              <path id="Path_1513" data-name="Path 1513" d="M561.976,483.954a.654.654,0,1,1,.068-.923A.655.655,0,0,1,561.976,483.954Z" transform="translate(-558.339 -445.479)" fill="#28681c"/>
              <path id="Path_1514" data-name="Path 1514" d="M597.158,478.326a.654.654,0,1,1,.068-.923A.654.654,0,0,1,597.158,478.326Z" transform="translate(-585.635 -441.112)" fill="#28681c"/>
              <path id="Path_1515" data-name="Path 1515" d="M621.68,420.409a.654.654,0,1,1,.068-.923A.654.654,0,0,1,621.68,420.409Z" transform="translate(-604.661 -396.177)" fill="#28681c"/>
              <path id="Path_1516" data-name="Path 1516" d="M634.49,400.932a.654.654,0,1,1,.068-.923A.654.654,0,0,1,634.49,400.932Z" transform="translate(-614.6 -381.065)" fill="#28681c"/>
              <path id="Path_1517" data-name="Path 1517" d="M672.188,367.238a.654.654,0,1,1,.068-.923A.654.654,0,0,1,672.188,367.238Z" transform="translate(-643.848 -354.923)" fill="#28681c"/>
            </g>
            <g id="Group_194" data-name="Group 194" transform="translate(43.956 56.199)">
              <g id="Group_187" data-name="Group 187">
                <g id="Group_186" data-name="Group 186">
                  <g id="Group_185" data-name="Group 185">
                    <path id="Path_1518" data-name="Path 1518" d="M417.177,366.265c-.066,0-.131,0-.2.007-19.288-.172-24.593,10.287-23.169,22.028a23.585,23.585,0,0,0,24.137,20.963l.2,0c13.172-.3,22.167-10.2,23.366-22.035C442.744,375.067,440,365.148,417.177,366.265Z" transform="translate(-393.593 -366.179)" fill="#e33615"/>
                  </g>
                </g>
              </g>
              <g id="Group_190" data-name="Group 190" transform="translate(2.509 4.982)">
                <g id="Group_189" data-name="Group 189" transform="translate(0 0)">
                  <g id="Group_188" data-name="Group 188" transform="translate(0)">
                    <circle id="Ellipse_49" data-name="Ellipse 49" cx="6.571" cy="6.571" r="6.571" transform="translate(0 9.293) rotate(-45)" fill="#e8513d"/>
                  </g>
                </g>
              </g>
              <ellipse id="Ellipse_50" data-name="Ellipse 50" cx="5.042" cy="2.127" rx="5.042" ry="2.127" transform="translate(19.451 6.411)" fill="#c62610"/>
              <g id="Group_193" data-name="Group 193" transform="translate(16.17 0.325)">
                <g id="Group_192" data-name="Group 192">
                  <g id="Group_191" data-name="Group 191">
                    <path id="Path_1519" data-name="Path 1519" d="M477.091,373.024c1.364-1.115,1.7-3.588,1.684-4.4a7.417,7.417,0,0,1-3.182,3.294c.827-1.193-.05-3.221-.477-4.222-1.122,1.654-1.363,3.232-2.244,4.214l-.017-.028a23.941,23.941,0,0,0-3.6-4.256c1.088,2.935.806,3.3,1.142,5.836a6.314,6.314,0,0,0-4.66-.5c1.419.17,1.78,1.777,3.011,2.557l.887-.017a5.84,5.84,0,0,0,3.354,1.263c2.656.053,4.883-2.124,7.407-3.516A3.983,3.983,0,0,0,477.091,373.024Z" transform="translate(-465.735 -367.63)" fill="#97cc26"/>
                  </g>
                </g>
              </g>
            </g>
            <g id="Group_197" data-name="Group 197" transform="translate(89.285 38.064)">
              <g id="Group_195" data-name="Group 195">
                <path id="Path_1520" data-name="Path 1520" d="M666.685,312.668a16.216,16.216,0,0,0-2.371-.759,16.415,16.415,0,0,0-18.806,9.317h0c-5.659,11.8-5.925,15.044-28.553,23.5h0a33.7,33.7,0,0,0-15.44,10.822c-8.339,10.437-7.88,24.444,3.847,32.343a26.628,26.628,0,0,0,3.193,1.814c14.66,7.294,36.324,1.109,44.386-12.547a23.037,23.037,0,0,0,3.04-7.734c4.313-22.257,6.257-23.458,16.02-34.549h0a15.626,15.626,0,0,0,2.947-5.236C677.333,322.234,673.275,315.326,666.685,312.668Zm-58.728,73.168q3.861-3.107,7.526-6.326Q611.817,382.728,607.957,385.836Zm10.145-8.664q2.228-2.018,4.381-4.074Q620.33,375.154,618.1,377.172Zm12.3-12.04q1.635-1.729,3.225-3.476Q632.044,363.405,630.4,365.132Z" transform="translate(-595.825 -305.598)" fill="#3b0134"/>
                <path id="Path_1521" data-name="Path 1521" d="M856.467,300.224c-.521-.265-1.07-.535-1.656-.814-4.207-1.943-10.705-.04-13.977,2.559-5.79,5.048,3.236,8.017,8.567,3.294a5.052,5.052,0,0,0,.789,7.437q3.42-6.214,6.306-12.509Z" transform="translate(-784.466 -295.623)" fill="#879e10"/>
                <path id="Path_1522" data-name="Path 1522" d="M909.533,288.673a1.371,1.371,0,0,0,1.742-.638,1.174,1.174,0,0,0-.55-1.647,13.258,13.258,0,0,0-15.375,3.453q-2.886,6.289-6.306,12.509c2.378,1.917,6.446,1.864,8.678-2.913.959,1.985.989,3.9,1.458,6.142.763,4.028,4.247,8.659,4.175-3.433-.108-5.7-1.3-8.375-5.827-11.066A10.529,10.529,0,0,1,909.533,288.673Z" transform="translate(-823.32 -285.271)" fill="#879e10"/>
              </g>
              <g id="Group_196" data-name="Group 196" transform="translate(14.393 15.283)" opacity="0.2">
                <path id="Path_1523" data-name="Path 1523" d="M685.641,372.285c-11.332,9.4-26.306,11.362-25.577,12.256.327,1.1,16.743.114,28.464-10.108,11.825-10.054,13.227-21.031,12.448-20.968C699.964,353.072,697.127,363.065,685.641,372.285Z" transform="translate(-660.039 -353.454)" fill="#fff"/>
              </g>
            </g>
            <g id="Group_205" data-name="Group 205" transform="translate(70.472 56.918)">
              <g id="Group_200" data-name="Group 200" transform="translate(0 12.659)">
                <g id="Group_199" data-name="Group 199">
                  <g id="Group_198" data-name="Group 198">
                    <path id="Path_1524" data-name="Path 1524" d="M535.48,425.951l-.2.007c-19.288-.172-24.593,10.287-23.169,22.028a23.585,23.585,0,0,0,24.137,20.963l.2,0c13.172-.3,22.168-10.2,23.367-22.035C561.046,434.753,558.3,424.834,535.48,425.951Z" transform="translate(-511.895 -425.865)" fill="#90a517"/>
                  </g>
                </g>
              </g>
              <g id="Group_203" data-name="Group 203" transform="translate(3.911 19.043)">
                <g id="Group_202" data-name="Group 202" transform="translate(0)">
                  <g id="Group_201" data-name="Group 201" transform="translate(0)">
                    <circle id="Ellipse_51" data-name="Ellipse 51" cx="6.571" cy="6.571" r="6.571" transform="matrix(0.227, -0.974, 0.974, 0.227, 0, 12.8)" fill="#b6bc39"/>
                  </g>
                </g>
              </g>
              <path id="Path_1525" data-name="Path 1525" d="M618.416,454.685c0,.638-.917,1.155-2.049,1.155s-2.048-.517-2.048-1.155.917-1.155,2.048-1.155S618.416,454.047,618.416,454.685Z" transform="translate(-591.361 -434.67)" fill="#72770a"/>
              <g id="Group_204" data-name="Group 204" transform="translate(16.573)">
                <path id="Path_1526" data-name="Path 1526" d="M623.333,412.19c-.037.419-1.155-13.026,1.681-13.972a2.86,2.86,0,0,1,3.782,1.576S624.173,402.841,623.333,412.19Z" transform="translate(-614.735 -391.592)" fill="#a64123"/>
                <path id="Path_1527" data-name="Path 1527" d="M634.488,399.972c-.149.424-1.113.471-2.153.105s-1.762-1.006-1.613-1.43,1.113-.471,2.153-.105S634.637,399.547,634.488,399.972Z" transform="translate(-620.646 -391.816)" fill="#9b371e"/>
                <path id="Path_1528" data-name="Path 1528" d="M608.023,407.682s2.022,5.646,3.677,5.8.131-.236.131-.236A12.26,12.26,0,0,1,608.023,407.682Z" transform="translate(-603.049 -399.099)" fill="#a64123"/>
                <path id="Path_1529" data-name="Path 1529" d="M592.534,373.338c1.273,2.051.715,4.756-.779,5.683s-3.26.782-4.533-1.268-1.388-8.363-1.388-8.363S591.261,371.287,592.534,373.338Z" transform="translate(-585.834 -369.389)" fill="#798737"/>
              </g>
            </g>
            <g id="Group_206" data-name="Group 206" transform="translate(0 53.368)">
              <circle id="Ellipse_52" data-name="Ellipse 52" cx="22.691" cy="22.691" r="22.691" transform="translate(0 32.089) rotate(-45)" fill="#fe770b"/>
              <path id="Path_1530" data-name="Path 1530" d="M326.688,439.238c0,.87-.952,1.576-2.127,1.576s-2.127-.705-2.127-1.576.952-1.576,2.127-1.576S326.688,438.368,326.688,439.238Z" transform="translate(-294.428 -418.809)" fill="#e56107"/>
              <path id="Path_1531" data-name="Path 1531" d="M315.958,426.246a24.194,24.194,0,0,0-.919,2.377,20.9,20.9,0,0,1,.247-3.191c.336-.962-1.187-1.372-1.519-.419a5.48,5.48,0,0,0,.707,3.807c-1.044.274-1.983.131-3.149.968-.827.593,2.427.306,4.12-.434a.6.6,0,0,0,.194-.076,1.563,1.563,0,0,0,.434-.507,6.7,6.7,0,0,0,.631-2.276C316.95,425.508,316.785,425.051,315.958,426.246Z" transform="translate(-285.707 -408.574)" fill="#9e822f"/>
            </g>
            <g id="Group_207" data-name="Group 207" transform="translate(34.199 68.41)">
              <path id="Path_1532" data-name="Path 1532" d="M352.455,420.921a1.284,1.284,0,0,0-.222,1.778l.017.024c.025.054.047.109.068.165a2.307,2.307,0,0,1,.031.232c0,.018,0,.047,0,.076,0,.057-.008.114-.013.171a4.985,4.985,0,0,1-.078.511c-.017.087-.037.174-.058.261l-.006.025,0,.014c-.048.179-.1.357-.153.535-.126.431-.247.862-.356,1.3a4.093,4.093,0,0,0,.779,3.86l-.032.032c-.163.174-.325.355-.483.547-5.65,6.84,1.749,12.939,17.762,26.2,15.877,13.143,31.466,20.566,35.024,16.713.031-.033.06-.067.089-.1,3.379-4.082-6.862-18.138-22.876-31.393-13.773-11.4-21.88-16.674-27.462-13.588a.292.292,0,0,1-.079-.038c-.025-.019-.088-.077-.126-.111s-.065-.079-.1-.119c-.011-.014-.026-.037-.041-.061-.024-.053-.047-.107-.068-.161l-.009-.022c-.014-.071-.024-.143-.032-.215,0-.028,0-.057-.007-.085s0-.135,0-.176a4.781,4.781,0,0,1,.071-.52c.013-.071.1-.423.09-.41.039-.145.081-.29.123-.434.467-1.6.971-3.286-.082-4.781A1.274,1.274,0,0,0,352.455,420.921Z" transform="translate(-350.067 -420.658)" fill="#468439"/>
              <path id="Path_1533" data-name="Path 1533" d="M352.457,420.921a1.284,1.284,0,0,0-.222,1.778l.017.024c.025.054.048.109.068.165a2.308,2.308,0,0,1,.031.232c0,.018,0,.047,0,.076,0,.057-.008.114-.013.171a4.968,4.968,0,0,1-.078.511c-.017.087-.037.174-.058.261l-.006.025,0,.014c-.048.179-.1.357-.153.535-.126.431-.247.862-.356,1.3a4.093,4.093,0,0,0,.779,3.86l-.032.032c-.163.174-.325.355-.483.547-3.661,4.432-1.842,8.554,4.247,14.512-1.092-2.5-3.539-9.995-1.645-8.147-.059-.2,5.071,3.7,5.656,4.2,2.083,1-5.6-7.083-6.628-8.335-1.272-1.474,5.97.019,8.013.976,1.69.977-3.122-3.933-4.726-4.133-1.249-2.033,10.234,4.175,8.958,2.72a14.26,14.26,0,0,1-1.929-2.095c-1.11-.785,3.075.873,4.554,1.448-6.109-3.94-10.518-5.222-13.964-3.317a.293.293,0,0,1-.079-.038c-.025-.019-.088-.077-.126-.111s-.065-.079-.1-.119c-.011-.014-.026-.037-.041-.061-.024-.053-.047-.107-.068-.161l-.009-.022c-.014-.071-.024-.143-.033-.215,0-.028,0-.057-.007-.085s0-.135,0-.176a4.766,4.766,0,0,1,.071-.52c.013-.071.1-.423.09-.41.039-.145.081-.29.123-.434.467-1.6.971-3.286-.082-4.781A1.274,1.274,0,0,0,352.457,420.921Z" transform="translate(-350.068 -420.658)" fill="#629955"/>
              <path id="Path_1534" data-name="Path 1534" d="M410.976,530.1a.654.654,0,1,1-.921.087A.654.654,0,0,1,410.976,530.1Z" transform="translate(-396.492 -505.45)" fill="#28681c"/>
              <path id="Path_1535" data-name="Path 1535" d="M475.787,564.691a.654.654,0,1,1-.921.087A.654.654,0,0,1,475.787,564.691Z" transform="translate(-446.776 -532.29)" fill="#28681c"/>
              <path id="Path_1536" data-name="Path 1536" d="M449.619,565.877a.654.654,0,1,1-.921.087A.654.654,0,0,1,449.619,565.877Z" transform="translate(-426.473 -533.21)" fill="#28681c"/>
              <path id="Path_1537" data-name="Path 1537" d="M470.427,520.3a.654.654,0,1,1-.921.087A.654.654,0,0,1,470.427,520.3Z" transform="translate(-442.617 -497.85)" fill="#105e02"/>
              <path id="Path_1538" data-name="Path 1538" d="M494.7,532.819a.654.654,0,1,1-.921.087A.655.655,0,0,1,494.7,532.819Z" transform="translate(-461.453 -507.562)" fill="#105e02"/>
              <path id="Path_1539" data-name="Path 1539" d="M510.616,571.232a.654.654,0,1,1-.921.087A.655.655,0,0,1,510.616,571.232Z" transform="translate(-473.798 -537.365)" fill="#105e02"/>
              <path id="Path_1540" data-name="Path 1540" d="M535.36,577.845a.654.654,0,1,1-.921.087A.654.654,0,0,1,535.36,577.845Z" transform="translate(-492.996 -542.495)" fill="#105e02"/>
              <path id="Path_1541" data-name="Path 1541" d="M535.656,555.941a.654.654,0,1,1-.921.087A.654.654,0,0,1,535.656,555.941Z" transform="translate(-493.226 -525.501)" fill="#105e02"/>
              <path id="Path_1542" data-name="Path 1542" d="M510.628,531.759a.654.654,0,1,1-.922.087A.654.654,0,0,1,510.628,531.759Z" transform="translate(-473.808 -506.739)" fill="#105e02"/>
              <path id="Path_1543" data-name="Path 1543" d="M460.958,491.015a.654.654,0,1,1-.921.087A.654.654,0,0,1,460.958,491.015Z" transform="translate(-435.27 -475.128)" fill="#105e02"/>
              <path id="Path_1544" data-name="Path 1544" d="M450.431,525.2a.654.654,0,1,1-.921.087A.654.654,0,0,1,450.431,525.2Z" transform="translate(-427.103 -501.65)" fill="#105e02"/>
              <path id="Path_1545" data-name="Path 1545" d="M435.078,487.248a.654.654,0,1,1-.921.087A.654.654,0,0,1,435.078,487.248Z" transform="translate(-415.192 -472.206)" fill="#105e02"/>
              <path id="Path_1546" data-name="Path 1546" d="M420.348,492.716a.654.654,0,1,1-.921.087A.654.654,0,0,1,420.348,492.716Z" transform="translate(-403.763 -476.448)" fill="#105e02"/>
              <path id="Path_1547" data-name="Path 1547" d="M575.1,620.825a.654.654,0,1,1-.921.087A.655.655,0,0,1,575.1,620.825Z" transform="translate(-523.829 -575.842)" fill="#105e02"/>
              <path id="Path_1548" data-name="Path 1548" d="M581.1,611.92a.654.654,0,1,1-.921.087A.655.655,0,0,1,581.1,611.92Z" transform="translate(-528.484 -568.933)" fill="#105e02"/>
              <path id="Path_1549" data-name="Path 1549" d="M541.651,596.924a.654.654,0,1,1-.922.087A.654.654,0,0,1,541.651,596.924Z" transform="translate(-497.877 -557.299)" fill="#105e02"/>
              <path id="Path_1550" data-name="Path 1550" d="M564.115,597.86a.654.654,0,1,1-.921.087A.654.654,0,0,1,564.115,597.86Z" transform="translate(-515.306 -558.024)" fill="#105e02"/>
              <path id="Path_1551" data-name="Path 1551" d="M394.133,541.287a.654.654,0,1,1-.921.087A.654.654,0,0,1,394.133,541.287Z" transform="translate(-383.424 -514.132)" fill="#28681c"/>
              <path id="Path_1552" data-name="Path 1552" d="M398.97,501.1a.654.654,0,1,1-.921.087A.654.654,0,0,1,398.97,501.1Z" transform="translate(-387.177 -482.952)" fill="#28681c"/>
              <path id="Path_1553" data-name="Path 1553" d="M493.087,615.174a.654.654,0,1,1-.921.087A.655.655,0,0,1,493.087,615.174Z" transform="translate(-460.199 -571.458)" fill="#28681c"/>
              <path id="Path_1554" data-name="Path 1554" d="M504.04,624.955a.654.654,0,1,1-.921.087A.654.654,0,0,1,504.04,624.955Z" transform="translate(-468.696 -579.046)" fill="#28681c"/>
              <path id="Path_1555" data-name="Path 1555" d="M504.124,611a.654.654,0,1,1-.921.087A.654.654,0,0,1,504.124,611Z" transform="translate(-468.762 -568.218)" fill="#28681c"/>
              <path id="Path_1556" data-name="Path 1556" d="M501.915,586.32a.654.654,0,1,1-.921.087A.654.654,0,0,1,501.915,586.32Z" transform="translate(-467.047 -549.071)" fill="#28681c"/>
              <path id="Path_1557" data-name="Path 1557" d="M549.964,629.887a.654.654,0,1,1-.921.087A.655.655,0,0,1,549.964,629.887Z" transform="translate(-504.327 -582.872)" fill="#28681c"/>
              <path id="Path_1558" data-name="Path 1558" d="M547.921,648.692a.654.654,0,1,1-.921.087A.654.654,0,0,1,547.921,648.692Z" transform="translate(-502.741 -597.463)" fill="#28681c"/>
              <path id="Path_1559" data-name="Path 1559" d="M536.494,614.946a.654.654,0,1,1-.921.087A.654.654,0,0,1,536.494,614.946Z" transform="translate(-493.876 -571.28)" fill="#28681c"/>
              <path id="Path_1560" data-name="Path 1560" d="M475.294,600.444a.654.654,0,1,1-.921.087A.655.655,0,0,1,475.294,600.444Z" transform="translate(-446.393 -560.029)" fill="#28681c"/>
              <path id="Path_1561" data-name="Path 1561" d="M453.95,591.068a.654.654,0,1,1-.921.087A.654.654,0,0,1,453.95,591.068Z" transform="translate(-429.834 -552.755)" fill="#28681c"/>
              <path id="Path_1562" data-name="Path 1562" d="M414.431,559.529a.654.654,0,1,1-.921.087A.654.654,0,0,1,414.431,559.529Z" transform="translate(-399.173 -528.285)" fill="#28681c"/>
            </g>
            <path id="Path_1563" data-name="Path 1563" d="M878.049,520.946c0,2.692-1.884,4.874-4.208,4.874a4.307,4.307,0,0,1-3.979-3.283,17.407,17.407,0,0,1,.68-3.866c.552-2.08,1.669-2.6,3.3-2.6C876.165,516.072,878.049,518.254,878.049,520.946Z" transform="translate(-719.136 -426.275)" fill="#8db63c"/>
          </g>
          <g id="Group_214" data-name="Group 214" transform="translate(8.056 31.398)">
            <g id="Group_213" data-name="Group 213">
              <g id="Group_209" data-name="Group 209" transform="translate(0 61.282)">
                <path id="Path_1564" data-name="Path 1564" d="M390.479,659.432c-.518,3.041-2.63,5.487-4.717,5.487H283.1c-2.087,0-4.227-2.446-4.78-5.487l-14.177-78c-.553-3.041,1.172-5.5,3.853-5.5H399.855c2.681,0,4.434,2.458,3.915,5.5Z" transform="translate(-257.179 -565.398)" fill="#ffcf33"/>
                <path id="Path_1565" data-name="Path 1565" d="M378.58,567.711l1.566-9.252,6.624-.657v-5.865c0-2.68-1.833-4.854-4.295-4.854H238a4.721,4.721,0,0,0-4.522,4.854v7.584l7.736,3.489.793,4.7Z" transform="translate(-233.465 -543.015)" fill="#231f20" opacity="0.1"/>
                <path id="Path_1566" data-name="Path 1566" d="M386.523,544.731c0,2.68-1.619,4.823-4.08,4.823H237.964a4.7,4.7,0,0,1-4.532-4.823V533.81a4.75,4.75,0,0,1,4.532-4.877H382.443c2.461,0,4.08,2.2,4.08,4.877Z" transform="translate(-233.432 -528.933)" fill="#ffcf33"/>
              </g>
              <g id="Group_212" data-name="Group 212" transform="translate(4.008)">
                <g id="Group_210" data-name="Group 210">
                  <path id="Path_1567" data-name="Path 1567" d="M274.143,318.418a8.742,8.742,0,0,1,10.172,5.1,4.858,4.858,0,0,0-.119-.729l-15.862-63.576a4.854,4.854,0,0,0-5.884-3.534l-7.456,1.86a4.854,4.854,0,0,0-3.535,5.884L267.321,327a4.871,4.871,0,0,0,.238.7A8.741,8.741,0,0,1,274.143,318.418Z" transform="translate(-251.314 -255.532)" fill="#633"/>
                  <path id="Path_1568" data-name="Path 1568" d="M340.42,540.283a8.689,8.689,0,1,0,.433,1.27A8.742,8.742,0,0,0,340.42,540.283Zm-6.654,9a5.8,5.8,0,1,1,4.24-4.348A5.78,5.78,0,0,1,333.766,549.284Z" transform="translate(-307.419 -472.298)" fill="#3c2415"/>
                </g>
                <g id="Group_211" data-name="Group 211" transform="translate(112.041 7.279)">
                  <path id="Path_1569" data-name="Path 1569" d="M772.048,344.7a8.741,8.741,0,0,1,3.355,10.872,4.847,4.847,0,0,0,.444-.59l34.932-55.437a4.854,4.854,0,0,0-1.519-6.694l-6.5-4.1a4.854,4.854,0,0,0-6.694,1.519l-34.932,55.438a4.89,4.89,0,0,0-.34.656A8.741,8.741,0,0,1,772.048,344.7Z" transform="translate(-758.636 -288.008)" fill="#633"/>
                  <path id="Path_1570" data-name="Path 1570" d="M767.94,547.159a8.689,8.689,0,1,0-.618,1.191A8.741,8.741,0,0,0,767.94,547.159Zm-11.1,1.423a5.8,5.8,0,1,1,6.073.053A5.78,5.78,0,0,1,756.837,548.582Z" transform="translate(-751.173 -479.593)" fill="#3c2415"/>
                </g>
              </g>
            </g>
          </g>
          <g id="Group_215" data-name="Group 215" transform="translate(34.633 129.439)">
            <path id="Path_1571" data-name="Path 1571" d="M356.483,737.734a2.064,2.064,0,0,1-2.241,1.821h0A2.064,2.064,0,0,1,352,737.734v-42.98a2.064,2.064,0,0,1,2.241-1.821h0a2.064,2.064,0,0,1,2.241,1.821Z" transform="translate(-352 -692.933)" fill="#ff9e33"/>
            <path id="Path_1572" data-name="Path 1572" d="M427.483,737.734a2.064,2.064,0,0,1-2.241,1.821h0A2.064,2.064,0,0,1,423,737.734v-42.98a2.064,2.064,0,0,1,2.241-1.821h0a2.064,2.064,0,0,1,2.241,1.821Z" transform="translate(-407.086 -692.933)" fill="#ff9e33"/>
            <path id="Path_1573" data-name="Path 1573" d="M498.483,737.734a2.064,2.064,0,0,1-2.241,1.821h0A2.064,2.064,0,0,1,494,737.734v-42.98a2.064,2.064,0,0,1,2.241-1.821h0a2.064,2.064,0,0,1,2.241,1.821Z" transform="translate(-462.171 -692.933)" fill="#ff9e33"/>
            <path id="Path_1574" data-name="Path 1574" d="M569.483,737.734a2.064,2.064,0,0,1-2.241,1.821h0A2.064,2.064,0,0,1,565,737.734v-42.98a2.064,2.064,0,0,1,2.241-1.821h0a2.064,2.064,0,0,1,2.241,1.821Z" transform="translate(-517.257 -692.933)" fill="#ff9e33"/>
            <path id="Path_1575" data-name="Path 1575" d="M640.483,737.734a2.064,2.064,0,0,1-2.241,1.821h0A2.064,2.064,0,0,1,636,737.734v-42.98a2.064,2.064,0,0,1,2.241-1.821h0a2.064,2.064,0,0,1,2.241,1.821Z" transform="translate(-572.343 -692.933)" fill="#ff9e33"/>
            <path id="Path_1576" data-name="Path 1576" d="M711.483,737.734a2.064,2.064,0,0,1-2.241,1.821h0A2.064,2.064,0,0,1,707,737.734v-42.98a2.064,2.064,0,0,1,2.241-1.821h0a2.064,2.064,0,0,1,2.241,1.821Z" transform="translate(-627.428 -692.933)" fill="#ff9e33"/>
            <path id="Path_1577" data-name="Path 1577" d="M782.483,737.734a2.064,2.064,0,0,1-2.241,1.821h0A2.064,2.064,0,0,1,778,737.734v-42.98a2.064,2.064,0,0,1,2.241-1.821h0a2.064,2.064,0,0,1,2.241,1.821Z" transform="translate(-682.514 -692.933)" fill="#ff9e33"/>
          </g>
        </g>
      </g>
    </g>
  </g>
</svg>
