<svg xmlns="http://www.w3.org/2000/svg" width="102" height="103" viewBox="0 0 102 103">
  <g id="Group_1710" data-name="Group 1710" transform="translate(-1228 -4112)">
    <g id="Ellipse_60" data-name="Ellipse 60" transform="translate(1228 4112)" fill="#fff" stroke="#707070" stroke-width="2">
      <ellipse cx="51" cy="51.5" rx="51" ry="51.5" stroke="none"/>
      <ellipse cx="51" cy="51.5" rx="50" ry="50.5" fill="none"/>
    </g>
    <g id="Group_1686" data-name="Group 1686" transform="translate(1064 3824.89)">
      <g id="Group_1685" data-name="Group 1685" transform="translate(180 323.67)">
        <g id="Group_1684" data-name="Group 1684" transform="translate(0 0)">
          <path id="Path_2434" data-name="Path 2434" d="M252.706,339.187l-6.008-6.713a5.779,5.779,0,0,0-3.9-1.7h-7.531l.418-3.972a2.8,2.8,0,0,0-2.807-3.128H197.056a3.256,3.256,0,0,0-3.2,2.891l-.174,1.658h-5a1.137,1.137,0,0,0,0,2.275h17.912a1.137,1.137,0,1,0,0-2.275H195.97l.149-1.421a1.01,1.01,0,0,1,.937-.854h35.817a.532.532,0,0,1,.415.17.551.551,0,0,1,.129.447L230.733,352.1H210a5.377,5.377,0,0,0-1.349-3.051,5.442,5.442,0,0,0-4.106-1.783,6.69,6.69,0,0,0-6.271,4.834h-4.2a.537.537,0,0,1-.415-.17.556.556,0,0,1-.129-.446l.772-7.344h5.4a1.137,1.137,0,0,0,0-2.275H181.137a1.137,1.137,0,0,0,0,2.275h10.871l-.746,7.106a2.8,2.8,0,0,0,2.807,3.129h4a5.371,5.371,0,0,0,1.349,3.051,5.441,5.441,0,0,0,4.105,1.783,6.688,6.688,0,0,0,6.271-4.834h25.879a5.376,5.376,0,0,0,5.456,4.834,6.688,6.688,0,0,0,6.27-4.834h2.512a3.254,3.254,0,0,0,3.2-2.891l.865-8.226A5.833,5.833,0,0,0,252.706,339.187Zm-44.972,13.934a4.055,4.055,0,0,1-.349,1.256,4.345,4.345,0,0,1-3.862,2.559,3.2,3.2,0,0,1-2.416-1.031,3.1,3.1,0,0,1-.742-1.528,3.568,3.568,0,0,1-.037-1.018,4.085,4.085,0,0,1,.348-1.256,4.347,4.347,0,0,1,3.862-2.559,3.194,3.194,0,0,1,2.416,1.031,3.1,3.1,0,0,1,.742,1.528A3.588,3.588,0,0,1,207.735,353.121Zm37.6,0a4.067,4.067,0,0,1-.347,1.256,4.346,4.346,0,0,1-3.862,2.559,3.2,3.2,0,0,1-2.416-1.03,3.109,3.109,0,0,1-.742-1.529,3.569,3.569,0,0,1-.037-1.018,4.1,4.1,0,0,1,.348-1.256,4.347,4.347,0,0,1,3.863-2.559,3.19,3.19,0,0,1,2.415,1.031,3.1,3.1,0,0,1,.742,1.528A3.551,3.551,0,0,1,245.339,353.121Zm6.376-10.1-.865,8.226a1.008,1.008,0,0,1-.937.854H247.6a5.379,5.379,0,0,0-1.349-3.051,5.439,5.439,0,0,0-4.105-1.783,6.689,6.689,0,0,0-6.271,4.834H233.02l2-19.058h7.77a3.593,3.593,0,0,1,2.21.946l6.006,6.713A3.651,3.651,0,0,1,251.716,343.023Z" transform="translate(-180 -323.67)"/>
          <path id="Path_2435" data-name="Path 2435" d="M2017.35,702.265a3.071,3.071,0,0,0-1.79-.776h-4.48a.646.646,0,0,0-.629.569l-.569,5.416a.5.5,0,0,0,.509.569h11.562c.314,0,.408-.179.209-.4Z" transform="translate(-1953.458 -689.84)"/>
          <path id="Path_2436" data-name="Path 2436" d="M278.185,621.026h19.05a1.137,1.137,0,0,0,0-2.275h-19.05a1.137,1.137,0,1,0,0,2.275Z" transform="translate(-274.056 -609.653)"/>
          <path id="Path_2437" data-name="Path 2437" d="M351.957,766.291a1.137,1.137,0,0,0,0,2.275H373.85a1.137,1.137,0,1,0,0-2.275Z" transform="translate(-345.553 -752.643)"/>
        </g>
      </g>
    </g>
  </g>
</svg>
