<svg xmlns="http://www.w3.org/2000/svg" width="102" height="103" viewBox="0 0 102 103">
  <g id="Group_1709" data-name="Group 1709" transform="translate(-830 -4115)">
    <g id="Ellipse_58" data-name="Ellipse 58" transform="translate(830 4115)" fill="#fff" stroke="#707070" stroke-width="2">
      <ellipse cx="51" cy="51.5" rx="51" ry="51.5" stroke="none"/>
      <ellipse cx="51" cy="51.5" rx="50" ry="50.5" fill="none"/>
    </g>
    <g id="Group_1683" data-name="Group 1683" transform="translate(498.472 3798.409)">
      <g id="Group_1681" data-name="Group 1681" transform="translate(347.77 361.855)">
        <g id="Group_1678" data-name="Group 1678" transform="translate(32.955 0)">
          <g id="Group_1677" data-name="Group 1677">
            <path id="Path_2431" data-name="Path 2431" d="M1077.925,889.432h-9.9a.686.686,0,0,1-.462-1.192c1.239-1.131,1.819-5,2.433-9.1a75.074,75.074,0,0,1,1.564-8.325,13.433,13.433,0,0,1,3.5-5.835,28.827,28.827,0,0,1,6.952-4.856,30.123,30.123,0,0,0,5.146-3.334l.04-.032a2.3,2.3,0,0,1,1.366-.482,1.763,1.763,0,0,1,1.4.666,2.6,2.6,0,0,1,.362,2.229,3.573,3.573,0,0,1-.358.919l.178-.161a8.552,8.552,0,0,0,2.944-4.833c.087-.27.181-.559.284-.87.241-.729.415-1.513.583-2.271.461-2.076.937-4.222,2.85-5.151a1.723,1.723,0,0,1,2.141.271c.613.668.842,1.942.683,3.787-.479,5.535-1.954,12.475-4.061,14.633-.8.817-1.563,1.622-2.375,2.474a104.075,104.075,0,0,1-11.374,10.683c-3.942,3.136-3.48,6.506-3.2,8.52.125.911.215,1.57-.175,2.023A.685.685,0,0,1,1077.925,889.432Zm-8.573-1.371h7.995c-.018-.209-.054-.473-.086-.7-.295-2.152-.844-6.157,3.709-9.779a102.924,102.924,0,0,0,11.235-10.556c.778-.818,1.583-1.663,2.387-2.486,1.769-1.812,3.214-8.459,3.676-13.793.139-1.608-.078-2.471-.327-2.742a.189.189,0,0,0-.159-.075.89.89,0,0,0-.373.11c-1.317.64-1.685,2.3-2.11,4.215a24.593,24.593,0,0,1-.62,2.4c-.1.308-.194.594-.281.861a9.793,9.793,0,0,1-3.324,5.423c-.762.7-7.918,6.836-9.508,6.836a.873.873,0,0,1-.388-.087.686.686,0,0,1-.183-1.1,55.778,55.778,0,0,1,6.069-5.29,5.338,5.338,0,0,0,1.927-2.428,1.331,1.331,0,0,0-.094-1.072c-.175-.218-.534-.191-.865.046a31.261,31.261,0,0,1-5.354,3.476,27.764,27.764,0,0,0-6.639,4.617,12.084,12.084,0,0,0-3.156,5.236,74.078,74.078,0,0,0-1.531,8.169C1070.811,882.948,1070.33,886.162,1069.352,888.061Z" transform="translate(-1067.34 -846.558)" fill="#131115"/>
          </g>
        </g>
        <g id="Group_1680" data-name="Group 1680" transform="translate(0 0)">
          <g id="Group_1679" data-name="Group 1679">
            <path id="Path_2432" data-name="Path 2432" d="M379.432,889.434h-9.9a.685.685,0,0,1-.52-.238c-.39-.453-.3-1.112-.175-2.023.276-2.014.737-5.384-3.2-8.52a104.054,104.054,0,0,1-11.372-10.68c-.812-.853-1.579-1.659-2.377-2.477-2.107-2.158-3.582-9.1-4.061-14.633-.16-1.845.07-3.12.683-3.787a1.723,1.723,0,0,1,2.141-.271c1.913.929,2.389,3.076,2.85,5.152.168.758.342,1.542.583,2.271.1.311.2.6.283.87a8.549,8.549,0,0,0,2.945,4.833l.177.161a3.57,3.57,0,0,1-.358-.918,2.6,2.6,0,0,1,.362-2.229,1.763,1.763,0,0,1,1.4-.666,2.3,2.3,0,0,1,1.366.482l.04.032a30.126,30.126,0,0,0,5.146,3.334,28.821,28.821,0,0,1,6.952,4.856,13.435,13.435,0,0,1,3.5,5.835,75.061,75.061,0,0,1,1.564,8.324c.608,4.056,1.182,7.889,2.395,9.065a.686.686,0,0,1-.419,1.228Zm-9.327-1.371H378.1c-.978-1.9-1.459-5.114-2-8.719a74.1,74.1,0,0,0-1.531-8.169,12.087,12.087,0,0,0-3.156-5.236,27.776,27.776,0,0,0-6.639-4.617,31.26,31.26,0,0,1-5.354-3.476c-.331-.237-.69-.264-.865-.046a1.332,1.332,0,0,0-.094,1.072,5.34,5.34,0,0,0,1.927,2.428,55.773,55.773,0,0,1,6.069,5.29.685.685,0,0,1-.183,1.1.874.874,0,0,1-.388.087c-1.591,0-8.746-6.139-9.508-6.836a9.792,9.792,0,0,1-3.324-5.424c-.086-.267-.178-.553-.28-.861a24.58,24.58,0,0,1-.62-2.4c-.426-1.919-.794-3.576-2.111-4.216a.891.891,0,0,0-.373-.11.189.189,0,0,0-.159.075c-.249.272-.466,1.135-.327,2.743.462,5.334,1.907,11.981,3.676,13.793.8.824,1.61,1.67,2.389,2.489a102.914,102.914,0,0,0,11.232,10.553c4.552,3.622,4,7.627,3.709,9.779C370.159,887.59,370.123,887.854,370.105,888.063Z" transform="translate(-347.77 -846.559)" fill="#131115"/>
          </g>
        </g>
      </g>
      <g id="Group_1682" data-name="Group 1682" transform="translate(354.494 338.591)">
        <path id="Path_2433" data-name="Path 2433" d="M520.529,382.645a.685.685,0,0,1-.364-.1c-1.044-.654-25.56-16.169-25.56-29.835a14.117,14.117,0,0,1,25.924-7.736,14.117,14.117,0,0,1,25.924,7.736c0,5.272-3.628,11.419-10.784,18.272a.685.685,0,0,1-.948-.99c6.875-6.584,10.361-12.4,10.361-17.282a12.746,12.746,0,0,0-23.951-6.074.686.686,0,0,1-1.2,0,12.746,12.746,0,0,0-23.951,6.074c0,12.049,21.475,26.44,24.553,28.44a107.835,107.835,0,0,0,10.327-7.689.685.685,0,1,1,.885,1.047,107.21,107.21,0,0,1-10.849,8.038A.685.685,0,0,1,520.529,382.645Z" transform="translate(-494.605 -338.591)" fill="#131115"/>
      </g>
    </g>
  </g>
</svg>
