<svg xmlns="http://www.w3.org/2000/svg" width="140" height="96.301" viewBox="0 0 140 96.301">
  <g id="Group_1673" data-name="Group 1673" transform="translate(-146.09 -180.865)">
    <path id="Path_2411" data-name="Path 2411" d="M274.856,185.558H231.069l-1.363-3.148a2.581,2.581,0,0,0-2.381-1.546h-24.2a2.569,2.569,0,0,0-2.394,3.556l.471,1.137H157.324c-6.2,0-11.234,5.674-11.234,12.642v66.324c0,6.968,5.039,12.642,11.234,12.642H274.856c6.2,0,11.234-5.674,11.234-12.642V198.2C286.09,191.232,281.051,185.558,274.856,185.558Zm-49.234.333,10.059,23.254-5.4-5.265a4.3,4.3,0,0,0-6.151-.069A4.1,4.1,0,0,0,223,206.9l.383,7.565-4.65-.239-11.724-28.33ZM243.246,218.4a4.281,4.281,0,0,0,3.248,1.294l5.856-.3L248,223.332a4.176,4.176,0,0,0,0,6.208l4.354,3.933-5.856-.3a4.281,4.281,0,0,0-3.248,1.294,4.2,4.2,0,0,0-1.144,3.1l.3,5.862-3.933-4.354a4.311,4.311,0,0,0-6.208,0l-3.933,4.354.3-5.862a4.189,4.189,0,0,0-4.178-4.4c-.045,0-6.076.308-6.076.308l4.354-3.933a4.183,4.183,0,0,0,0-6.214l-4.354-3.927s6.031.3,6.076.3a4.189,4.189,0,0,0,4.178-4.4l-.3-5.856,3.933,4.354a4.322,4.322,0,0,0,6.208,0l3.933-4.354-.3,5.856A4.187,4.187,0,0,0,243.246,218.4Zm-85.921,53.732c-3.33,0-6.044-3.5-6.044-7.608V198.2c0-4.109,2.714-7.452,6.044-7.452H203.36l9.959,24a4.2,4.2,0,0,0-.515,6.616l5.623,5.077-5.623,5.077a4.184,4.184,0,0,0,3.016,7.282l7.565-.39L223,245.97a4.111,4.111,0,0,0,1.131,3.091,4.289,4.289,0,0,0,3.921,1.175l9.023,21.9Zm85.3,0-10.4-25.288,3.135-3.475,5.077,5.617a4.1,4.1,0,0,0,3.091,1.389,4.236,4.236,0,0,0,3.06-1.313,4.111,4.111,0,0,0,1.131-3.091l.641-7.515,14.5,33.676Zm38.284-7.608c0,4.109-2.714,7.608-6.051,7.608h-6.277l-14.413-33.375.734.038a4.184,4.184,0,0,0,3.017-7.282l-5.623-5.077,5.623-5.077a4.151,4.151,0,0,0,1.1-4.606,4.254,4.254,0,0,0-4.116-2.677c-1.308.069-7.565.383-7.565.383l.384-7.565a4.12,4.12,0,0,0-1.131-3.091,4.3,4.3,0,0,0-6.151.075l-.956,1.062-6.157-14.194h41.531c3.336,0,6.051,3.343,6.051,7.452Z" fill="#fff"/>
    <g id="Group_1671" data-name="Group 1671" transform="translate(160.783 217.967)">
      <g id="Group_1669" data-name="Group 1669">
        <path id="Path_2412" data-name="Path 2412" d="M178.117,257.2a8.642,8.642,0,1,1,8.642-8.642A8.652,8.652,0,0,1,178.117,257.2Zm0-12.1a3.457,3.457,0,1,0,3.457,3.456A3.46,3.46,0,0,0,178.117,245.1Z" transform="translate(-169.475 -239.916)" fill="#fff"/>
      </g>
      <g id="Group_1670" data-name="Group 1670" transform="translate(27.654 22.469)">
        <path id="Path_2413" data-name="Path 2413" d="M222.13,292.961a8.642,8.642,0,1,1,8.642-8.642A8.652,8.652,0,0,1,222.13,292.961Zm0-12.1a3.457,3.457,0,1,0,3.457,3.457A3.46,3.46,0,0,0,222.13,280.862Z" transform="translate(-213.488 -275.677)" fill="#fff"/>
      </g>
    </g>
    <g id="Group_1672" data-name="Group 1672" transform="translate(168.875 213.801)">
      <path id="Path_2414" data-name="Path 2414" d="M183.7,281.048a2.592,2.592,0,0,1-1.023-3.52l23.569-42.9a2.592,2.592,0,0,1,4.544,2.5l-23.569,42.9A2.591,2.591,0,0,1,183.7,281.048Z" transform="translate(-182.353 -233.286)" fill="#fff"/>
    </g>
  </g>
</svg>
