<svg xmlns="http://www.w3.org/2000/svg" width="302.999" height="463.11" viewBox="0 0 302.999 463.11">
  <g id="Group_1714" data-name="Group 1714" transform="translate(78.425 -5600.185)">
    <g id="Group_1691" data-name="Group 1691" transform="translate(198.413 5189.833) rotate(123)" opacity="0.34">
      <path id="Path_1427" data-name="Path 1427" d="M315.107,215.863c59.734-1.3,99.483,109.1,178.912,40.084-17.288-15.158-60.823-44.209-102.551-43.953,36.2-7.785,79.266,7.136,102.054,25.859C469.128,142.184,363.008,168.522,315.107,215.863Z" transform="translate(64.744 -447.18)" fill="#ff7401"/>
      <path id="Path_1428" data-name="Path 1428" d="M417.837,312.729c10.357-44.959,49.475-104.58,101.763-129.494-51.956,39.529-78.155,117.1-85.1,152.388,164.323,9.668,108.151-165.09,183.413-220.513C513.351,102.194,356.708,170.893,417.837,312.729Z" transform="translate(163.809 -513.573)" fill="#619e1b"/>
    </g>
  </g>
</svg>
