<svg xmlns="http://www.w3.org/2000/svg" width="102" height="103" viewBox="0 0 102 103">
  <g id="Group_1712" data-name="Group 1712" transform="translate(-1228 -4438)">
    <g id="Ellipse_61" data-name="Ellipse 61" transform="translate(1228 4438)" fill="#fff" stroke="#707070" stroke-width="2">
      <ellipse cx="51" cy="51.5" rx="51" ry="51.5" stroke="none"/>
      <ellipse cx="51" cy="51.5" rx="50" ry="50.5" fill="none"/>
    </g>
    <g id="Group_1687" data-name="Group 1687" transform="translate(933.423 3596.494)">
      <path id="Path_2438" data-name="Path 2438" d="M344.638,892.664c-.384-1.747-1.494-6.961-1.53-7.083.405-.61.654-11.559-2.33-17.049-1.4-2.58-3.3-5.254-6.139-6.334-2.286-.871-5.333-.441-6.814,1.682a7.723,7.723,0,0,0-1.052,4.518,15.326,15.326,0,0,0,.554,3.926,17.791,17.791,0,0,0,3.722,6.89,18.933,18.933,0,0,0,6.359,4.819,17.11,17.11,0,0,0,1.861.731,22.958,22.958,0,0,1,2.641,1.042c.424,2.514.95,5.013,1.479,7.507a15.345,15.345,0,0,0-4.141-3.874,15.023,15.023,0,0,0-7.708-2.425,5.074,5.074,0,0,0-3.743,1.049,4.329,4.329,0,0,0-.811,4.15,5.475,5.475,0,0,0,2.573,3.294,9.982,9.982,0,0,0,4.122,1.193,18.737,18.737,0,0,0,9.959-1.819c.046.077,1.028,4.241,1.5,6.239.345,1.452.689,2.905,1.07,4.348.063.239.653.218.918.182C347.184,905.64,346.211,899.813,344.638,892.664Z" transform="translate(0 0)" fill="none" stroke="#000" stroke-width="1"/>
      <path id="Path_2439" data-name="Path 2439" d="M1165.24,1821.368a4.315,4.315,0,0,0-3.7.179,10.944,10.944,0,0,0-1.633.994,5.157,5.157,0,0,0-1.372,1.532,6.6,6.6,0,0,0-.413,1.813c-.1.252-.852,1.71-1.208,2.459a43.421,43.421,0,0,0-2.183,4.792c-.041.242.628.054.645.057a9.16,9.16,0,0,0,1.734-2.818c.27-.646.558-1.285.853-1.92a10.4,10.4,0,0,0,.682-1.748,6.288,6.288,0,0,0,6.174-.014,3.917,3.917,0,0,0,2.149-2.716A2.714,2.714,0,0,0,1165.24,1821.368Z" transform="translate(-803.065 -930.424)" fill="none" stroke="#000" stroke-width="1"/>
      <path id="Path_2440" data-name="Path 2440" d="M1008.931,902.59a52.526,52.526,0,0,1-.565-11.931c.333-.3.483-.4.823-.688.485-.413,1.927-1.661,1.987-1.71a14.286,14.286,0,0,0,7.123-.475,7.14,7.14,0,0,0,2.714-1.842,3.606,3.606,0,0,0,1.095-3.037c-.279-1.166-1.517-1.463-2.55-1.5a8.456,8.456,0,0,0-3.1.477,9.3,9.3,0,0,0-4.846,3.879,8.714,8.714,0,0,0-.746,1.582c-.09.068-2.141,1.747-2.358,1.937.11-2.479.219-3.819.445-6.051.138-1.364.228-2.639.509-4.1a14.065,14.065,0,0,0,7.971-9.233,12.125,12.125,0,0,0,.432-3.368,6.025,6.025,0,0,0-.885-3.251,3.4,3.4,0,0,0-2.986-1.5,5.7,5.7,0,0,0-3.335,1.39,9.854,9.854,0,0,0-3.139,5.807,22.364,22.364,0,0,0-.295,7.448,6.159,6.159,0,0,0,.892,2.581s-1.215,13.135-1.055,16.8c.009.367.023.734.045,1.1a28.516,28.516,0,0,0,.846,5.718C1007.994,902.757,1008.955,902.746,1008.931,902.59Z" transform="translate(-659.823 0)" fill="none" stroke="#000" stroke-width="1"/>
      <path id="Path_2441" data-name="Path 2441" d="M638.9,2184.06c-.133-.333-.494-.431-.8-.528-.5-.157-23.659-1.11-24.322-.947-.287.071-.6.133-.743.424a2.763,2.763,0,0,0-.147,1.028,5.81,5.81,0,0,0,.256,2.035c.171.5.729.608,1.237.587a72.152,72.152,0,0,0,.153,8.328,34.052,34.052,0,0,0,2.829,11.958c.412.863,9.092.968,11.206.7,0,0,5.1-.449,5.734-1.166a5.593,5.593,0,0,0,.8-2.854q.262-1.777.5-3.559.816-6.138,1.33-12.324l.734-.046c.317-.021.73.018.983-.219s.229-.648.258-.969c.04-.429.073-.858.08-1.29A3.16,3.16,0,0,0,638.9,2184.06Z" transform="translate(-277.507 -1281.092)" fill="none" stroke="#000" stroke-width="1"/>
      <path id="Path_2442" data-name="Path 2442" d="M749.079,2281.245q-.138-.85-.264-1.7-.248-1.678-.444-3.364-.389-3.337-.581-6.693c-.075-1.275-.117-2.552-.168-3.828a.366.366,0,0,0-.732,0,101.6,101.6,0,0,0,1.107,13.6q.133.935.281,1.867a6.871,6.871,0,0,0,.419,1.915c.148.307.549.119.577-.157A6.446,6.446,0,0,0,749.079,2281.245Z" transform="translate(-407.489 -1361.343)" fill="none" stroke="#000" stroke-width="1"/>
      <path id="Path_2443" data-name="Path 2443" d="M919.631,2296.912a.345.345,0,0,0-.69,0c-.132,2.319-.075,4.657-.1,6.978s-.039,4.652-.057,6.979c-.011,1.313-.038,2.626-.025,3.939a.385.385,0,0,0,.771,0c.058-2.324.041-4.653.058-6.978s.033-4.652.048-6.978C919.648,2299.54,919.685,2298.223,919.631,2296.912Z" transform="translate(-574.193 -1391.677)" fill="none" stroke="#000" stroke-width="1"/>
      <path id="Path_2444" data-name="Path 2444" d="M1070.625,2281.272c-.289,4.876-.432,9.763-.631,14.643-.057,1.389-.134,2.778-.156,4.168a.38.38,0,0,0,.76,0c.16-2.436.212-4.883.311-7.322s.195-4.881.29-7.322c.054-1.389.112-2.779.143-4.168C1071.352,2280.8,1070.653,2280.812,1070.625,2281.272Z" transform="translate(-720.73 -1376.494)" fill="none" stroke="#000" stroke-width="1"/>
      <path id="Path_2445" data-name="Path 2445" d="M1226.866,2296.091a.369.369,0,0,0-.739,0,59.121,59.121,0,0,1-1.314,13.394c-.275,1.252-.6,2.491-.947,3.724a.381.381,0,0,0,.735.2,55.656,55.656,0,0,0,2.23-13.423C1226.89,2298.69,1226.908,2297.39,1226.866,2296.091Z" transform="translate(-870.113 -1390.857)" fill="none" stroke="#000" stroke-width="1"/>
    </g>
  </g>
</svg>
