<svg xmlns="http://www.w3.org/2000/svg" width="197.572" height="94.889" viewBox="0 0 197.572 94.889">
  <g id="Group_1668" data-name="Group 1668" transform="translate(-180 -323.67)">
    <g id="Group_1667" data-name="Group 1667" transform="translate(180 323.67)">
      <g id="Group_1666" data-name="Group 1666" transform="translate(0 0)">
        <path id="Path_2407" data-name="Path 2407" d="M374.117,365.1l-16.039-17.924a15.428,15.428,0,0,0-10.426-4.549H327.545l1.115-10.605a7.465,7.465,0,0,0-7.493-8.352H225.539a8.693,8.693,0,0,0-8.545,7.719l-.466,4.427H203.171a3.036,3.036,0,0,0,0,6.073H251a3.036,3.036,0,1,0,0-6.073H222.637l.4-3.793a2.7,2.7,0,0,1,2.5-2.28h95.628a1.421,1.421,0,0,1,1.108.454,1.47,1.47,0,0,1,.345,1.192l-7.167,68.193H260.084a14.357,14.357,0,0,0-3.6-8.146,14.529,14.529,0,0,0-10.963-4.759,17.86,17.86,0,0,0-16.742,12.9H217.561a1.434,1.434,0,0,1-1.109-.454,1.485,1.485,0,0,1-.346-1.192l2.061-19.608h14.414a3.036,3.036,0,0,0,0-6.073H183.036a3.036,3.036,0,0,0,0,6.073h29.025L210.069,397.3a7.464,7.464,0,0,0,7.493,8.353h10.682a14.339,14.339,0,0,0,3.6,8.146,14.526,14.526,0,0,0,10.961,4.759,17.856,17.856,0,0,0,16.742-12.9h69.094a14.352,14.352,0,0,0,14.567,12.9,17.855,17.855,0,0,0,16.74-12.9h6.708a8.687,8.687,0,0,0,8.543-7.718l2.31-21.961A15.572,15.572,0,0,0,374.117,365.1ZM254.048,402.3a10.83,10.83,0,0,1-.931,3.354,11.6,11.6,0,0,1-10.31,6.832,8.531,8.531,0,0,1-6.449-2.752,8.279,8.279,0,0,1-1.981-4.08,9.527,9.527,0,0,1-.1-2.719,10.9,10.9,0,0,1,.93-3.354,11.605,11.605,0,0,1,10.312-6.832,8.529,8.529,0,0,1,6.449,2.752,8.27,8.27,0,0,1,1.982,4.08A9.578,9.578,0,0,1,254.048,402.3Zm100.4,0a10.86,10.86,0,0,1-.927,3.354,11.6,11.6,0,0,1-10.31,6.832,8.536,8.536,0,0,1-6.449-2.749,8.3,8.3,0,0,1-1.982-4.083,9.526,9.526,0,0,1-.1-2.719,10.943,10.943,0,0,1,.93-3.354,11.607,11.607,0,0,1,10.313-6.832,8.518,8.518,0,0,1,6.447,2.752,8.269,8.269,0,0,1,1.982,4.08A9.485,9.485,0,0,1,354.448,402.3Zm17.024-26.961-2.31,21.962a2.692,2.692,0,0,1-2.5,2.279h-6.172a14.362,14.362,0,0,0-3.6-8.146,14.521,14.521,0,0,0-10.961-4.759,17.859,17.859,0,0,0-16.743,12.9h-7.622l5.349-50.881h20.745a9.591,9.591,0,0,1,5.9,2.526l16.036,17.922A9.748,9.748,0,0,1,371.472,375.34Z" transform="translate(-180 -323.67)" fill="#fff"/>
        <path id="Path_2408" data-name="Path 2408" d="M2029.825,703.562a8.2,8.2,0,0,0-4.779-2.073h-11.962a1.725,1.725,0,0,0-1.678,1.518l-1.518,14.46a1.342,1.342,0,0,0,1.36,1.518h30.869c.839,0,1.088-.479.557-1.074Z" transform="translate(-1859.24 -670.386)" fill="#fff"/>
        <path id="Path_2409" data-name="Path 2409" d="M280.085,624.824h50.861a3.036,3.036,0,0,0,0-6.073H280.085a3.036,3.036,0,1,0,0,6.073Z" transform="translate(-269.059 -594.459)" fill="#fff"/>
        <path id="Path_2410" data-name="Path 2410" d="M353.856,766.291a3.036,3.036,0,0,0,0,6.073h58.452a3.036,3.036,0,1,0,0-6.073Z" transform="translate(-336.758 -729.854)" fill="#fff"/>
      </g>
    </g>
  </g>
</svg>
