<svg xmlns="http://www.w3.org/2000/svg" width="157.044" height="120.904" viewBox="0 0 157.044 120.904">
  <g id="Group_1674" data-name="Group 1674" transform="translate(-824.478 -1094.998)">
    <path id="Path_2415" data-name="Path 2415" d="M1772.129,2171.77a8.787,8.787,0,0,0,2.163-2.82,7.8,7.8,0,0,0,.776-3.529,8.514,8.514,0,0,0-4.6-7.225,14.546,14.546,0,0,0-4.057-1.387l-.047-.01v-8.618l.072.017a5.882,5.882,0,0,1,2.353,1.142,3.962,3.962,0,0,1,1.563,2.989,1.812,1.812,0,0,0,1.808,1.771h.024a1.8,1.8,0,0,0,1.771-1.833,7.5,7.5,0,0,0-2.886-5.718,9.576,9.576,0,0,0-4.538-2l-.048-.008-.036-2.073a1.812,1.812,0,0,0-1.808-1.77h-.024a1.8,1.8,0,0,0-1.77,1.833l.036,2.072-.048.009a9.574,9.574,0,0,0-4.466,2.158,7.351,7.351,0,0,0,.078,11.43l.02.017a8.775,8.775,0,0,0,4.367,1.729l.049.008v10.513l-.075-.022a6.409,6.409,0,0,1-2.981-1.811,4.464,4.464,0,0,1-1.206-2.929,1.812,1.812,0,0,0-1.808-1.771h-.024a1.8,1.8,0,0,0-1.771,1.832,7.8,7.8,0,0,0,.9,3.5,8.8,8.8,0,0,0,2.258,2.744,10.474,10.474,0,0,0,4.541,2.119l.046.01.037,2.176a1.81,1.81,0,0,0,1.8,1.77h.031a1.8,1.8,0,0,0,1.771-1.832l-.034-1.976.052-.006A10.573,10.573,0,0,0,1772.129,2171.77Zm-.664-6.287c.042,2.434-2.075,4.6-5.034,5.14l-.069.013v-10.146l.073.018a10.058,10.058,0,0,1,2.277.836A4.959,4.959,0,0,1,1771.465,2165.482Zm-12.186-12.963a3.962,3.962,0,0,1,1.46-3.041,5.763,5.763,0,0,1,2.063-1.148l.076-.024v7.984l-.07-.015a4.747,4.747,0,0,1-2.037-.827l0,0A3.945,3.945,0,0,1,1759.279,2152.519Z" transform="translate(-868.378 -975.847)" fill="#fff"/>
    <path id="Path_2416" data-name="Path 2416" d="M2023.68,1406.429a1.705,1.705,0,0,0,1.7,1.7h9.039a4.105,4.105,0,0,1,.006,8.21l-4.794-.018h-.02a1.71,1.71,0,0,0-1.7,1.683,1.7,1.7,0,0,0,1.686,1.724l4.825.018c.167,0,.34-.006.513-.018,2.451.018,5.083,1.346,5.083,4.222a4.11,4.11,0,0,1-4.068,4.105h0l-.552,0h-.024a3.19,3.19,0,0,0-.328,0l-8.076.053c-.027,0-.054,0-.081,0s-.06,0-.094,0c-1.292,0-1.649-.1-2.247-.65a1.7,1.7,0,0,0-2.706,1.952,7.507,7.507,0,0,0,.028,12.441,6.616,6.616,0,0,0,4.856,11.114h.014l5.678-.058a6.628,6.628,0,0,0,6.613-6.62,6.561,6.561,0,0,0-1.153-3.714,7.628,7.628,0,0,0,3.193-2.351,7.428,7.428,0,0,0,1.623-4.659,7.6,7.6,0,0,0-2.412-5.509,7.466,7.466,0,0,0,3.143-6.108,7.163,7.163,0,0,0-3.712-6.387,7.51,7.51,0,0,0-5.291-12.842h-9.039A1.705,1.705,0,0,0,2023.68,1406.429Zm3.045,36.714c.041,0,.083,0,.127-.005s.086.005.13.005l5.1-.033a1.708,1.708,0,0,0,.33.033,3.15,3.15,0,0,1,3.212,3.154,3.217,3.217,0,0,1-3.216,3.212l-5.687.058a3.212,3.212,0,0,1,0-6.425Zm.244-3.407c-.039,0-.077,0-.117.005s-.085-.005-.126-.005c-.147,0-.3,0-.444.015a1.638,1.638,0,0,0-.219-.015,4.105,4.105,0,0,1,0-8.21,1.579,1.579,0,0,0,.166-.009c.176.006.361.009.565.009.033,0,.064,0,.093,0s.06,0,.094,0l8.343-.055a4.1,4.1,0,0,1-.143,8.207c-.045,0-.09,0-.137.006Z" transform="translate(-1114.311 -289.039)" fill="#fff"/>
    <path id="Path_2417" data-name="Path 2417" d="M1557.206,1654.019a1.7,1.7,0,0,0,.193,3.4,1.758,1.758,0,0,0,.2-.011c6.043-.693,8.651-4.307,9.775-7.217a14.988,14.988,0,0,0,.943-6.027,1.712,1.712,0,0,0-1.7-1.562c-.045,0-.091,0-.138.005a1.706,1.706,0,0,0-1.562,1.83,11.814,11.814,0,0,1-.75,4.588C1563.016,1651.94,1560.675,1653.622,1557.206,1654.019Z" transform="translate(-682.375 -511.022)" fill="#fff"/>
    <path id="Path_2418" data-name="Path 2418" d="M1454.284,1788.827a1.831,1.831,0,1,0-2.5,2.675c4.351,4.07,9.538,10.332,9.538,17.051,0,15.4-11.316,24.6-30.271,24.6s-30.272-9.2-30.272-24.6c0-10.168,8.747-20.215,16.464-29.078,5.694-6.54,10.612-12.189,11.185-17.072a1.831,1.831,0,0,0-1.606-2.032,1.868,1.868,0,0,0-.215-.013,1.831,1.831,0,0,0-1.817,1.618c-.44,3.759-5.235,9.265-10.312,15.1a129.212,129.212,0,0,0-11.534,14.635c-3.922,6.138-5.828,11.649-5.828,16.846a28.879,28.879,0,0,0,2.707,12.72,24.085,24.085,0,0,0,7.438,8.892c5.879,4.352,14.106,6.653,23.79,6.653s17.911-2.3,23.79-6.653a24.09,24.09,0,0,0,7.438-8.892,28.879,28.879,0,0,0,2.707-12.72C1464.983,1800.1,1458.28,1792.564,1454.284,1788.827Z" transform="translate(-534.385 -620.916)" fill="#fff"/>
    <path id="Path_2419" data-name="Path 2419" d="M1795.993,1107.362a1.712,1.712,0,0,0,1.7,1.448,1.732,1.732,0,0,0,.274-.022,1.721,1.721,0,0,0,1.427-1.971,42.644,42.644,0,0,0-1.625-6.406,16.506,16.506,0,0,0,1.812.094,43.041,43.041,0,0,0,8.179-1.1,38.158,38.158,0,0,1,6.927-.977,5.963,5.963,0,0,1,4.509,1.528,76.566,76.566,0,0,0-7.035,11.119,1.721,1.721,0,0,0,1.557,2.449h0a1.725,1.725,0,0,0,1.557-.988,66.554,66.554,0,0,1,7.412-11.4,1.712,1.712,0,0,0,.173-2.036,8.482,8.482,0,0,0-7.24-4.075c-.3-.019-.622-.028-.945-.028a40.107,40.107,0,0,0-7.59,1.036,40.4,40.4,0,0,1-7.5,1.027,9.564,9.564,0,0,1-4.04-.753,1.709,1.709,0,0,0-.718-.157,1.72,1.72,0,0,0-1.521,2.525A34.151,34.151,0,0,1,1795.993,1107.362Z" transform="translate(-903.924)" fill="#fff"/>
    <path id="Path_2420" data-name="Path 2420" d="M1210.8,1362.126l.04.022.037.01a1.693,1.693,0,0,0,1.356-3.1c-2.365-1.266-4.6-2.462-8.007-2.571v-27.2a13.4,13.4,0,0,0,5.682-2.194,48.114,48.114,0,0,0,5.7-4.658,87.231,87.231,0,0,1,9.125-7.419l.016-.011c.02-.014.038-.028.057-.043l.013-.01c.02-.014.039-.029.058-.045a7.335,7.335,0,0,1,8.822-.474l.065.042,7.472,4.574.04.024a7.316,7.316,0,0,1,2.706,2.741l3.423,7.15a4.691,4.691,0,0,1,.461,2.042,4.736,4.736,0,0,1-8.26,3.164l-3.091-4.954,1.485-1.841a1.7,1.7,0,0,0-2.652-2.139l-1.506,1.867-3.826-1.261.06-1.838a1.7,1.7,0,1,0-3.405-.111l-.1,3.112a1.713,1.713,0,0,0,1.169,1.673l5.571,1.837,3.479,5.576a1.744,1.744,0,0,0,.15.205,8.144,8.144,0,0,0,13.539-8.8l-3.445-7.2c-.015-.031-.03-.06-.047-.09a10.712,10.712,0,0,0-3.98-4.068l-7.431-4.549a10.741,10.741,0,0,0-12.827.659,90.28,90.28,0,0,0-9.419,7.655c-3.549,3.195-5.944,5.351-9.1,5.933v-1.374a1.705,1.705,0,0,0-1.7-1.7h-7.345a1.7,1.7,0,0,0,0,3.407h5.641v33.285h-6.381a1.7,1.7,0,1,0,0,3.407h8.085a1.705,1.705,0,0,0,1.7-1.7V1359.9a14.146,14.146,0,0,1,6.391,2.129A1.662,1.662,0,0,0,1210.8,1362.126Z" transform="translate(-343.659 -200.432)" fill="#fff"/>
    <path id="Path_2421" data-name="Path 2421" d="M1040.918,1507.407h2.994a1.716,1.716,0,0,0,0-3.433h-2.994a1.716,1.716,0,1,0,0,3.433Z" transform="translate(-200.381 -381.657)" fill="#fff"/>
    <path id="Path_2422" data-name="Path 2422" d="M1194.562,2396.583a1.718,1.718,0,0,0-1.716-1.716h-1.608a1.716,1.716,0,0,0,0,3.433h1.608A1.718,1.718,0,0,0,1194.562,2396.583Z" transform="translate(-340.659 -1213.041)" fill="#fff"/>
    <path id="Path_2423" data-name="Path 2423" d="M1271.593,1153.659h1.312a1.716,1.716,0,0,0,0-3.433h-1.312a1.716,1.716,0,0,0,0,3.433Z" transform="translate(-415.647 -51.539)" fill="#fff"/>
    <path id="Path_2424" data-name="Path 2424" d="M1080.112,2051.4h-.868a1.716,1.716,0,1,0,0,3.433h.868a1.716,1.716,0,1,0,0-3.433Z" transform="translate(-236.146 -892.519)" fill="#fff"/>
    <path id="Path_2425" data-name="Path 2425" d="M1429.564,1153.659h7.3a1.716,1.716,0,0,0,0-3.433h-7.3a1.716,1.716,0,0,0,0,3.433Z" transform="translate(-563.066 -51.539)" fill="#fff"/>
    <path id="Path_2426" data-name="Path 2426" d="M841.841,2394.867H826.194a1.716,1.716,0,1,0,0,3.433h15.646a1.716,1.716,0,1,0,0-3.433Z" transform="translate(0 -1213.041)" fill="#fff"/>
    <path id="Path_2427" data-name="Path 2427" d="M1222.2,2698.789h-4.4a1.716,1.716,0,0,0,0,3.433h4.4a1.716,1.716,0,0,0,0-3.433Z" transform="translate(-365.454 -1496.661)" fill="#fff"/>
    <path id="Path_2428" data-name="Path 2428" d="M2453.367,1422.3A37.8,37.8,0,0,0,2406,1401.386a1.716,1.716,0,1,0,1.143,3.237,34.329,34.329,0,1,1,11.433,66.7,34.843,34.843,0,0,1-4.092-.241,1.716,1.716,0,0,0-.406,3.409,38.292,38.292,0,0,0,4.5.265,37.778,37.778,0,0,0,34.79-52.454Z" transform="translate(-1474.813 -283.919)" fill="#fff"/>
    <path id="Path_2429" data-name="Path 2429" d="M2531.9,1559.629a1.719,1.719,0,0,0-1.716,1.717v19.986a5.61,5.61,0,1,0,7.057,7.058h14.708a1.716,1.716,0,1,0,0-3.433h-14.708a5.629,5.629,0,0,0-3.625-3.625v-19.986A1.719,1.719,0,0,0,2531.9,1559.629Zm0,29.221a2.177,2.177,0,1,1,2.177-2.177A2.18,2.18,0,0,1,2531.9,1588.85Z" transform="translate(-1588.139 -433.595)" fill="#fff"/>
  </g>
</svg>
