<svg xmlns="http://www.w3.org/2000/svg" width="102" height="103" viewBox="0 0 102 103">
  <g id="Group_1711" data-name="Group 1711" transform="translate(-830 -4446)">
    <g id="Ellipse_59" data-name="Ellipse 59" transform="translate(830 4446)" fill="#fff" stroke="#707070" stroke-width="2">
      <ellipse cx="51" cy="51.5" rx="51" ry="51.5" stroke="none"/>
      <ellipse cx="51" cy="51.5" rx="50" ry="50.5" fill="none"/>
    </g>
    <g id="Group_1688" data-name="Group 1688" transform="translate(838.833 4457.833)">
      <rect id="Rectangle_386" data-name="Rectangle 386" width="14" height="4" transform="translate(43.167 15.167)" fill="none" stroke="#414042" stroke-linecap="round" stroke-linejoin="round" stroke-width="1.2"/>
      <line id="Line_31" data-name="Line 31" y1="6" transform="translate(51.167 19.167)" fill="none" stroke="#414042" stroke-linecap="round" stroke-linejoin="round" stroke-width="1.2"/>
      <path id="Path_2446" data-name="Path 2446" d="M52.5,23.167h-5V21.5h-10v1.667h-5A3.332,3.332,0,0,0,29.167,26.5v1.667H27.5v6.667h1.667v25H55.833V26.5A3.332,3.332,0,0,0,52.5,23.167Z" transform="translate(8 4)" fill="none" stroke="#414042" stroke-linecap="round" stroke-linejoin="round" stroke-width="1.2"/>
      <path id="Path_2447" data-name="Path 2447" d="M32.833,27.5H31.167A1.667,1.667,0,0,0,29.5,29.167V50.833a5,5,0,0,1-5,5h0a5,5,0,0,1-5-5v-15" transform="translate(2.667 8)" fill="none" stroke="#414042" stroke-linecap="round" stroke-linejoin="round" stroke-width="1.2"/>
      <path id="Path_2448" data-name="Path 2448" d="M21.833,35.833H18.5V29.167A1.667,1.667,0,0,1,20.167,27.5h0a1.667,1.667,0,0,1,1.667,1.667Z" transform="translate(2 8)" fill="none" stroke="#414042" stroke-linecap="round" stroke-linejoin="round" stroke-width="1.2"/>
      <line id="Line_32" data-name="Line 32" transform="translate(22.167 32.167)" fill="none" stroke="#414042" stroke-linecap="round" stroke-linejoin="round" stroke-width="1.2"/>
      <line id="Line_33" data-name="Line 33" transform="translate(25.167 32.167)" fill="none" stroke="#414042" stroke-linecap="round" stroke-linejoin="round" stroke-width="1.2"/>
      <line id="Line_34" data-name="Line 34" transform="translate(24.167 28.167)" fill="none" stroke="#414042" stroke-linecap="round" stroke-linejoin="round" stroke-width="1.2"/>
      <line id="Line_35" data-name="Line 35" transform="translate(27.167 28.167)" fill="none" stroke="#414042" stroke-linecap="round" stroke-linejoin="round" stroke-width="1.2"/>
      <line id="Line_36" data-name="Line 36" transform="translate(20.167 28.167)" fill="none" stroke="#414042" stroke-linecap="round" stroke-linejoin="round" stroke-width="1.2"/>
      <line id="Line_37" data-name="Line 37" transform="translate(17.167 28.167)" fill="none" stroke="#414042" stroke-linecap="round" stroke-linejoin="round" stroke-width="1.2"/>
      <line id="Line_38" data-name="Line 38" transform="translate(22.167 25.167)" fill="none" stroke="#414042" stroke-linecap="round" stroke-linejoin="round" stroke-width="1.2"/>
      <line id="Line_39" data-name="Line 39" transform="translate(25.167 25.167)" fill="none" stroke="#414042" stroke-linecap="round" stroke-linejoin="round" stroke-width="1.2"/>
      <line id="Line_40" data-name="Line 40" transform="translate(28.167 25.167)" fill="none" stroke="#414042" stroke-linecap="round" stroke-linejoin="round" stroke-width="1.2"/>
      <line id="Line_41" data-name="Line 41" transform="translate(19.167 25.167)" fill="none" stroke="#414042" stroke-linecap="round" stroke-linejoin="round" stroke-width="1.2"/>
      <line id="Line_42" data-name="Line 42" transform="translate(15.167 25.167)" fill="none" stroke="#414042" stroke-linecap="round" stroke-linejoin="round" stroke-width="1.2"/>
      <line id="Line_43" data-name="Line 43" transform="translate(19.167 32.167)" fill="none" stroke="#414042" stroke-linecap="round" stroke-linejoin="round" stroke-width="1.2"/>
      <path id="Path_2449" data-name="Path 2449" d="M44.5,26.5V53.166h-5" transform="translate(16 7.333)" fill="none" stroke="#414042" stroke-linecap="round" stroke-linejoin="round" stroke-width="1.2"/>
    </g>
  </g>
</svg>
